<svg width="124" height="124" viewBox="0 0 124 124" fill="none" xmlns="http://www.w3.org/2000/svg"><path d="M2 60.8894C2 63.1207 2.58718 65.352 3.72241 67.2701L24.313 102.932C26.4269 106.572 29.6368 109.547 33.6297 110.878C41.498 113.501 49.6403 110.135 53.5157 103.402L58.4872 94.7895L38.8752 60.8894L64.5548 16.3807C66.0423 13.7971 68.0387 11.6833 70.3875 10H38.4446C32.8468 10 27.6796 12.9751 24.9002 17.8291L3.72241 54.5086C2.58718 56.4268 2 58.6581 2 60.8894Z" fill="#6363F1"/><path d="M119.437 60.8892C119.437 58.6579 118.85 56.4266 117.715 54.5084L96.8499 18.377C92.9745 11.6831 84.8322 8.31655 76.9639 10.9002C72.971 12.2311 69.7611 15.2062 67.6472 18.8467L62.9497 26.9499L82.5617 60.8892L56.8822 105.398C55.3946 107.942 53.3982 110.095 51.0495 111.779H82.9923C88.5902 111.779 93.7574 108.803 96.5367 103.949L117.715 67.2699C118.85 65.3518 119.437 63.1205 119.437 60.8892Z" fill="#6363F1"/></svg>
