<svg width="16" height="14" viewBox="0 0 16 14" fill="none" xmlns="http://www.w3.org/2000/svg">
<path d="M0.575421 4.12442e-05C0.50116 -0.000889866 0.427588 0.0139545 0.359873 0.0435318C0.292159 0.0731092 0.231943 0.116702 0.183456 0.17125C0.134968 0.225797 0.0993841 0.289976 0.079203 0.359279C0.0590218 0.428582 0.0547328 0.501329 0.0666371 0.572411L2.22652 13.2861C2.25342 13.4417 2.33601 13.5831 2.45976 13.6855C2.58352 13.7879 2.74053 13.8448 2.90322 13.8461H13.265C13.3869 13.8476 13.5054 13.8066 13.5988 13.7305C13.6921 13.6544 13.7542 13.5484 13.7737 13.4317L15.9337 0.574877C15.9456 0.503799 15.9413 0.43106 15.9211 0.361767C15.9009 0.292475 15.8653 0.228309 15.8168 0.173774C15.7683 0.11924 15.7081 0.0756591 15.6404 0.0460927C15.5726 0.0165262 15.4991 0.00169065 15.4248 0.00262761L0.575421 4.12442e-05ZM9.67027 9.18875H6.36305L5.46755 4.65238H10.4717L9.67027 9.18875Z" fill="white"/>
<path d="M15.2335 4.646H10.4623L9.66154 9.17876H6.35699L2.45508 13.6696C2.57875 13.7733 2.73642 13.8309 2.89991 13.8322H13.256C13.3778 13.8338 13.4962 13.7928 13.5895 13.7168C13.6828 13.6408 13.7449 13.5348 13.7644 13.4182L15.2335 4.646Z" fill="url(#paint0_linear_1128_20917)"/>
<defs>
<linearGradient id="paint0_linear_1128_20917" x1="16.3367" y1="5.91536" x2="11.05" y2="13.657" gradientUnits="userSpaceOnUse">
<stop offset="0.18" stop-color="#0046C4"/>
<stop offset="1" stop-color="white"/>
</linearGradient>
</defs>
</svg>
