<svg width="16" height="15" viewBox="0 0 16 15" fill="none" xmlns="http://www.w3.org/2000/svg">
<path d="M7.87444 14.9999L10.776 5.77124H4.97705L7.87444 14.9999Z" fill="white" fill-opacity="0.5"/>
<path d="M0.913014 5.77124L0.0294319 8.57504C-0.0505136 8.82965 0.0358294 9.11064 0.246852 9.26937L7.87448 14.9999L0.913014 5.77124Z" fill="white"/>
<path d="M0.913086 5.77125H4.97716L3.22808 0.213276C3.13857 -0.0710919 2.74846 -0.0710919 2.65572 0.213276L0.913086 5.77125Z" fill="white" fill-opacity="0.5"/>
<path d="M14.8402 5.77124L15.7206 8.57504C15.8005 8.82965 15.7142 9.11064 15.5031 9.26937L7.87451 14.9999L14.8402 5.77124Z" fill="white"/>
<path d="M14.84 5.77125H10.7759L12.5217 0.213276C12.6113 -0.0710919 13.0014 -0.0710919 13.0941 0.213276L14.84 5.77125Z" fill="white" fill-opacity="0.5"/>
<path d="M7.87451 14.9999L10.7761 5.77124H14.8402L7.87451 14.9999Z" fill="white" fill-opacity="0.7"/>
<path d="M7.8745 14.9999L0.913086 5.77124H4.97716L7.8745 14.9999Z" fill="white" fill-opacity="0.7"/>
</svg>
