<svg xmlns="http://www.w3.org/2000/svg" viewBox="400 395 167 190" fill="currentColor">
<path d="M563.463 439.971L487.344 396.057C484.899 394.646 481.883 394.646 479.439 396.057L403.323 439.971C401.269 441.156 400 443.349 400 445.723V534.276C400 536.647 401.269 538.843 403.323 540.029L479.443 583.943C481.887 585.353 484.903 585.353 487.347 583.943L563.466 540.029C565.521 538.843 566.79 536.651 566.79 534.276V445.723C566.79 443.352 565.521 441.156 563.466 439.971H563.463ZM558.681 449.273L485.199 576.451C484.703 577.308 483.391 576.958 483.391 575.966V492.691C483.391 491.027 482.501 489.488 481.058 488.652L408.887 447.016C408.03 446.52 408.38 445.209 409.373 445.209H556.337C558.424 445.209 559.728 447.47 558.685 449.276H558.681V449.273Z"/>
</svg>
