<svg
  viewBox="0 0 39 43"
  fill="none"
  xmlns="http://www.w3.org/2000/svg"
>
  <path
    d="M36.7815 16.6906C36.4031 16.1711 35.8939 15.7559 35.3031 15.4852C34.7107 15.2134 34.0569 15.0947 33.4042 15.1403C32.7514 15.186 32.1216 15.3944 31.5748 15.7458C31.0306 16.0962 30.5885 16.5783 30.2915 17.1451C29.9994 17.7537 29.9054 18.4352 30.0222 19.0976C30.1391 19.7601 30.4611 20.3715 30.9448 20.8494C32.2693 20.9515 33.5874 20.5875 34.6615 19.8231C35.7311 19.0629 36.4851 17.9504 36.7815 16.6906ZM25.4998 2.39652L23.0831 1.1129L12.5665 6.78331L13.4048 7.22312L14.9998 8.03435L17.8865 6.48032L25.5015 2.37045L25.4998 2.39652ZM26.4731 2.00557C26.5352 2.02068 26.5923 2.05106 26.639 2.09383C26.6857 2.1366 26.7204 2.19033 26.7398 2.24991L30.2631 12.3201C30.2995 12.4 30.3025 12.4906 30.2713 12.5725C30.2402 12.6544 30.1774 12.7211 30.0965 12.7583C28.7555 13.4696 27.6995 14.6027 27.0998 15.9739C26.5027 17.3413 26.3998 18.8666 26.8081 20.2988C27.298 21.8607 28.3332 23.205 29.7331 24.0975C31.1365 24.9934 32.8198 25.3844 34.4898 25.2052C34.5811 25.1999 34.6718 25.2221 34.7499 25.2687C34.8279 25.3152 34.8896 25.3841 34.9265 25.4658L38.5665 35.8016C38.5898 35.8848 38.5861 35.9731 38.556 36.0542C38.5258 36.1353 38.4707 36.2052 38.3981 36.2544L27.2115 42.5911C27.1582 42.6131 27.1009 42.6242 27.0431 42.6237C26.9398 42.6423 26.8331 42.625 26.7415 42.5748L22.8165 40.1884C22.745 40.1522 22.6868 40.0953 22.6498 40.0255L14.9831 22.9491L3.30812 29.3835C3.23819 29.4179 3.1615 29.4371 3.08327 29.4399C3.00505 29.4427 2.92712 29.429 2.85479 29.3998L0.201457 27.937C0.115429 27.8918 0.0502785 27.8163 0.0193051 27.7257C-0.0116684 27.6352 -0.00612971 27.5366 0.0347905 27.4499L11.3765 6.59923C11.4189 6.52815 11.483 6.47178 11.5598 6.43797L22.8681 0.32774C22.9301 0.295922 22.999 0.279297 23.069 0.279297C23.1389 0.279297 23.2079 0.295922 23.2698 0.32774L26.4748 2.00557H26.4731ZM12.4498 7.60756L11.8998 7.33226L0.966457 27.4988L2.96146 28.5869L12.3898 16.6385C12.4361 16.5834 12.4951 16.5398 12.5621 16.5115C12.6291 16.4831 12.702 16.4708 12.7748 16.4756C12.846 16.4881 12.9132 16.5166 12.9713 16.5587C13.0294 16.6008 13.0768 16.6554 13.1098 16.7183L23.3765 39.6313L26.1198 41.2716L15.0998 10.0608L14.6315 8.76086L12.4348 7.59127L12.4515 7.60756H12.4498ZM29.3581 19.6325C29.107 18.7337 29.1776 17.7779 29.5581 16.9236C29.9403 16.0652 30.6089 15.3589 31.4548 14.92C32.3153 14.4546 33.3043 14.267 34.2804 14.384C35.2566 14.501 36.1699 14.9167 36.8898 15.5715C37.2903 15.9442 37.6114 16.3906 37.8344 16.8852C38.0575 17.3797 38.1782 17.9125 38.1895 18.4528C38.2008 18.9932 38.1025 19.5304 37.9003 20.0334C37.6982 20.5364 37.396 20.9953 37.0115 21.3837L36.8898 21.5026C36.0363 22.2884 34.9089 22.7273 33.7364 22.7303C32.5639 22.7334 31.4342 22.3002 30.5765 21.5189C30.0123 21.002 29.5929 20.3526 29.3581 19.6325Z"
    fill="black"
  />
</svg>
