<svg width="144" height="144" viewBox="0 0 144 144" fill="none" xmlns="http://www.w3.org/2000/svg">
<path d="M90.4762 112.348C111.321 110.089 130.976 99.246 141.807 81.1456C136.686 125.903 86.5295 154.197 45.6046 136.819C41.8281 135.214 38.588 132.574 36.3553 129.15C27.1553 115.056 24.13 97.1188 28.4698 80.8406C40.8908 101.754 66.1275 114.581 90.4762 112.348Z" fill="#F5B01A"/>
<path d="M27.7121 67.7151C19.2585 86.7701 18.8877 109.096 29.2574 127.462C-7.21311 100.681 -6.80889 43.3974 28.8086 16.8877C32.0949 14.4428 36.0177 12.9778 40.1204 12.7676C57.0101 11.9015 74.1656 18.2706 86.1919 30.141C61.743 30.367 37.9402 45.6574 27.7121 67.7151Z" fill="#8D2576"/>
<path d="M97.9799 35.9923C85.648 19.2052 66.3361 7.78991 45.1878 7.44222C86.0729 -10.6724 136.352 18.6963 141.835 62.1021C142.344 66.1385 141.677 70.2365 139.842 73.8714C132.2 89.0054 118.035 100.749 101.486 105.097C113.636 83.15 112.126 56.3337 97.9799 35.9923Z" fill="#EE342F"/>
</svg>
