<svg
  viewBox="0 0 40 41"
  fill="none"
  xmlns="http://www.w3.org/2000/svg"
>
  <path
    d="M19.8559 0.917969C9.70138 0.917969 10.3354 5.32156 10.3354 5.32156L10.3467 9.88382H20.037V11.2535H6.49787C6.49787 11.2535 0 10.5166 0 20.7624C0 31.0085 5.6715 30.6452 5.6715 30.6452H9.05623V25.8906C9.05623 25.8906 8.87376 20.2191 14.6372 20.2191H24.2482C24.2482 20.2191 29.648 20.3063 29.648 15.0004V6.22734C29.648 6.22734 30.4681 0.917969 19.8559 0.917969ZM14.5127 3.986C14.7417 3.98579 14.9684 4.03074 15.18 4.11827C15.3916 4.20581 15.5839 4.33421 15.7458 4.49613C15.9077 4.65805 16.0361 4.8503 16.1237 5.0619C16.2112 5.2735 16.2562 5.50028 16.256 5.72926C16.2562 5.95825 16.2112 6.18503 16.1237 6.39663C16.0361 6.60822 15.9077 6.80048 15.7458 6.9624C15.5839 7.12432 15.3916 7.25272 15.18 7.34025C14.9684 7.42779 14.7417 7.47274 14.5127 7.47253C14.2837 7.47274 14.0569 7.42779 13.8453 7.34025C13.6337 7.25272 13.4415 7.12432 13.2795 6.9624C13.1176 6.80048 12.9892 6.60822 12.9017 6.39663C12.8142 6.18503 12.7692 5.95825 12.7694 5.72926C12.7692 5.50028 12.8142 5.2735 12.9017 5.0619C12.9892 4.8503 13.1176 4.65805 13.2795 4.49613C13.4415 4.33421 13.6337 4.20581 13.8453 4.11827C14.0569 4.03074 14.2837 3.98579 14.5127 3.986Z"
    fill="url(#paint0_linear_3123_204)"
  />
  <path
    d="M20.1441 40.7103C30.2986 40.7103 29.6646 36.3067 29.6646 36.3067L29.6533 31.7446H19.9629V30.3749H33.5019C33.5019 30.3749 39.9998 31.1118 39.9998 20.8657C39.9998 10.6197 34.3283 10.983 34.3283 10.983H30.9436V15.7375C30.9436 15.7375 31.126 21.409 25.3626 21.409H15.7516C15.7516 21.409 10.3518 21.3218 10.3518 26.6278V35.4011C10.3518 35.4011 9.5319 40.7103 20.1439 40.7103H20.1441ZM25.4873 37.6426C25.2583 37.6428 25.0315 37.5978 24.8199 37.5103C24.6083 37.4228 24.4161 37.2944 24.2541 37.1324C24.0922 36.9705 23.9638 36.7783 23.8763 36.5667C23.7888 36.3551 23.7438 36.1283 23.744 35.8993C23.7438 35.6703 23.7887 35.4435 23.8762 35.2319C23.9638 35.0203 24.0922 34.828 24.2541 34.6661C24.416 34.5041 24.6083 34.3757 24.8199 34.2882C25.0315 34.2006 25.2583 34.1557 25.4873 34.1559C25.7163 34.1557 25.9431 34.2006 26.1546 34.2881C26.3662 34.3757 26.5585 34.5041 26.7204 34.666C26.8823 34.8279 27.0107 35.0202 27.0983 35.2318C27.1858 35.4434 27.2308 35.6701 27.2306 35.8991C27.2308 36.1281 27.1858 36.3549 27.0983 36.5665C27.0107 36.7781 26.8823 36.9704 26.7204 37.1323C26.5585 37.2942 26.3662 37.4226 26.1546 37.5101C25.9431 37.5977 25.7163 37.6426 25.4873 37.6424V37.6426Z"
    fill="url(#paint1_linear_3123_204)"
  />
  <defs>
    <linearGradient
      id="paint0_linear_3123_204"
      x1="3.84398"
      y1="4.49702"
      x2="23.6667"
      y2="24.122"
      gradientUnits="userSpaceOnUse"
    >
      <stop stop-color="#387EB8" />
      <stop offset="1" stop-color="#366994" />
    </linearGradient>
    <linearGradient
      id="paint1_linear_3123_204"
      x1="16.011"
      y1="17.0993"
      x2="37.2984"
      y2="37.223"
      gradientUnits="userSpaceOnUse"
    >
      <stop stop-color="#FFE052" />
      <stop offset="1" stop-color="#FFC331" />
    </linearGradient>
  </defs>
</svg>
