<svg width="96" height="24" viewBox="0 0 96 24" fill="none" xmlns="http://www.w3.org/2000/svg">
<path fill-rule="evenodd" clip-rule="evenodd" d="M85.7143 16.8288L88.6358 20.7806H88.6367C89.3141 21.7005 90.1647 21.8741 90.7937 21.8741C92.1746 21.8741 93 20.8557 93 19.886C93 19.2773 92.9381 18.8666 92.1126 17.7487L89.2038 13.7969L91.8165 11.523C92.6555 10.8021 92.9139 10.0938 92.9139 9.53487C92.9139 8.31645 92.0381 7.57116 90.8798 7.57116C90.0292 7.57116 89.4738 7.78284 88.3648 8.76421L83.6067 12.9892V4.41049C83.6067 2.99405 82.67 2 81.3017 2C79.9334 2 78.9967 2.99405 78.9967 4.41049V19.5251C78.9967 20.9415 79.9334 21.9356 81.3017 21.9356C82.67 21.9356 83.6067 20.9415 83.6067 19.5251V18.6676L85.7143 16.8288ZM39.8781 17.4258V11.8429H39.6517C38.3946 11.8429 37.5073 10.9981 37.5073 9.78067C37.5073 8.56322 38.3946 7.71843 39.6517 7.71843H39.8781V4.60947C39.8781 3.18034 40.8148 2.18629 42.1831 2.18629C43.5514 2.18629 44.4881 3.18034 44.4881 4.60947V7.71745H46.8744C48.1315 7.71745 49.0188 8.56225 49.0188 9.77969C49.0188 10.9971 48.1315 11.8419 46.8744 11.8419H44.4881V16.7049C44.4881 17.4628 44.7349 17.6248 45.1413 17.6248C45.4491 17.6248 45.7326 17.4384 46.0655 17.2024C46.3248 17.016 46.7932 16.6932 47.5325 16.6932C48.5921 16.6932 49.2946 17.4267 49.2946 18.5076C49.2946 19.29 49.0237 20.0733 48.3453 20.682C47.4086 21.5268 45.929 21.999 44.462 21.999C41.7622 21.999 39.8771 20.1348 39.8771 17.4267L39.8781 17.4258ZM25.4809 19.7739C25.1481 19.3515 25 18.8793 25 18.2579C25 17.1771 25.7025 16.4815 26.7747 16.4815C27.4153 16.4815 27.9582 16.6805 28.6975 17.1771C29.8316 17.9477 30.5584 18.2209 31.4835 18.2209C32.1734 18.2209 32.5557 18.0092 32.5557 17.6121C32.5557 17.1644 32.2963 16.9537 31.5077 16.7674L29.5849 16.3079C26.9596 15.6865 25.5177 14.1959 25.5177 12.1083C25.5177 9.32516 27.724 7.58484 31.2367 7.58484C33.0366 7.58484 34.7378 8.04431 35.7974 8.81496C36.5986 9.3993 36.9935 10.1075 36.9935 10.9523C36.9935 11.9464 36.2416 12.6799 35.2187 12.6799C34.5288 12.6799 33.9124 12.3317 33.1353 11.8722C32.2847 11.3747 31.7051 11.2138 31.138 11.2138C30.5709 11.2138 30.2632 11.4254 30.2632 11.7727C30.2632 12.1454 30.5593 12.3941 31.1758 12.5434L33.3201 13.0526C36.0442 13.6984 37.3263 15.028 37.3263 17.1907C37.3263 20.1602 34.9846 22 31.2251 22C28.7846 22 26.5415 21.1298 25.4809 19.7758V19.7739ZM53.7083 13.8593C51.3287 14.4554 50.1704 15.785 50.1704 17.9223H50.1714C50.1714 20.3455 52.0816 21.998 54.8675 21.998C56.3713 21.998 57.6409 21.5142 58.5902 20.5943C59.256 21.4391 60.2295 21.9366 61.4004 21.9366C61.9132 21.9366 62.4571 21.7951 62.9409 21.56C63.3648 21.3532 63.8641 20.9962 63.9028 20.4948C63.9464 19.9368 63.6846 19.802 63.3088 19.6086C63.1346 19.519 62.936 19.4167 62.7319 19.2539C62.1435 18.7843 62.2119 17.8321 62.2422 17.4098C62.2471 17.3418 62.251 17.2875 62.251 17.2512V12.5541C62.251 9.23638 60.1559 7.58386 56.7042 7.58386C54.2753 7.58386 52.5848 8.40036 51.2533 9.84217C50.6988 10.4382 50.5139 11.0099 50.5139 11.6439C50.5139 12.6634 50.9107 13.2506 52.0322 13.2506C52.5374 13.2506 53.0057 13.0643 54.0044 12.4556C55.0156 11.8469 55.9146 11.524 56.5436 11.524C57.2345 11.524 57.6409 11.7844 57.6409 12.2322C57.6409 12.6419 57.37 12.9404 56.8765 13.0643L53.7083 13.8593ZM57.64 17.1888C57.64 17.935 57.0613 18.4443 56.1981 18.4443L56.1991 18.4452C55.5082 18.4452 55.0524 18.0472 55.0524 17.5253C55.0524 17.0034 55.4714 16.5313 56.0752 16.382L56.8639 16.183C57.159 16.1079 57.4309 15.984 57.64 15.8348V17.1888ZM63.8525 14.791C63.8525 10.5533 66.9587 7.58386 71.0259 7.58386C73.4664 7.58386 75.1424 8.32915 76.203 9.4227C77.0284 10.2802 77.2626 11.1123 77.2626 11.8459C77.2626 12.9521 76.4981 13.7969 75.3892 13.7969C74.465 13.7969 73.836 13.3989 73.1703 12.7034C72.5906 12.1073 71.95 11.8088 71.173 11.8088C69.7553 11.8088 68.5718 13.0145 68.5718 14.791C68.5718 16.5674 69.7553 17.7731 71.173 17.7731C72.221 17.7731 72.7503 17.3751 73.2806 16.742C73.8602 16.0464 74.4147 15.7352 75.2779 15.7352C76.3627 15.7352 77.2868 16.5927 77.2868 17.7107C77.2868 18.4189 76.9907 19.2764 76.1652 20.1338C75.0931 21.2401 73.2438 21.998 71.0249 21.998C66.9577 21.998 63.8515 19.0286 63.8515 14.791H63.8525Z" fill="#141414"/>
<path d="M5.97478 4.7761C5.42935 3.12308 7.81451 2.05036 9.95397 2.00112C11.4596 1.96636 13.9361 2.74459 14.0717 3.98628C14.2073 5.22798 13.9607 6.88679 12.4895 7.10017C10.9937 7.31742 6.37084 5.97434 5.97478 4.77514V4.7761Z" fill="#F3B01C"/>
<path d="M8.53341 8.19285C4.89131 7.59711 3.7179 10.8829 3.62257 11.8214C3.3985 14.0151 5.99593 14.213 8.31819 14.1706C10.6404 14.1281 15.1759 14.5761 16.0092 13.6607C17.9276 11.5549 12.1765 8.78763 8.53341 8.19285V8.19285Z" fill="#141414"/>
<path d="M3.08184 20.495C2.23863 17.7577 8.10078 15.0744 11.9473 15.2492C14.6538 15.3728 17.1412 16.5855 16.9938 18.6749C16.8463 20.7644 14.7531 21.8323 11.8077 21.9221C8.8634 22.0119 3.64594 22.3276 3.08184 20.495V20.495Z" fill="#EE342F"/>
</svg>
