<svg
  width="66"
  height="41"
  viewBox="0 0 66 41"
  fill="none"
  xmlns="http://www.w3.org/2000/svg"
>
  <path
    d="M26.3572 8.94525C26.3572 4.22059 30.1873 0.390503 34.9119 0.390503H56.6855C61.7104 0.390503 65.7839 4.46403 65.7839 9.48899V17.5H34.9119C30.1873 17.5 26.3572 13.6699 26.3572 8.94525Z"
    fill="#8D2676"
  />
  <path
    d="M39.7839 31.9453C39.7839 27.2206 35.9538 23.3905 31.2292 23.3905H9.45566C4.43071 23.3905 0.357178 27.464 0.357178 32.489V40.5H31.2292C35.9538 40.5 39.7839 36.6699 39.7839 31.9453Z"
    fill="#F3B01C"
  />
  <path
    d="M39.7839 31.9453C39.7839 27.2206 35.9538 23.3905 31.2292 23.3905H9.45566C4.43071 23.3905 0.357178 27.464 0.357178 32.489V40.5H31.2292C35.9538 40.5 39.7839 36.6699 39.7839 31.9453Z"
    fill="#F3B01C"
  />
</svg>
