<?xml version="1.0" encoding="UTF-8" standalone="no"?>
<!DOCTYPE svg PUBLIC "-//W3C//DTD SVG 1.1//EN" "http://www.w3.org/Graphics/SVG/1.1/DTD/svg11.dtd">
<svg width="100%" height="100%" viewBox="0 0 1576 293" version="1.1" xmlns="http://www.w3.org/2000/svg" xmlns:xlink="http://www.w3.org/1999/xlink" xml:space="preserve" xmlns:serif="http://www.serif.com/" style="fill-rule:evenodd;clip-rule:evenodd;stroke-linejoin:round;stroke-miterlimit:2;">
    <g transform="matrix(1,0,0,1,-686.497,-2313.64)">
        <g transform="matrix(1,0,0,1,287.84,2091.04)">
            <g transform="matrix(0.989789,-0.142538,0.142538,0.989789,22.0171,106.53)">
                <g transform="matrix(0.989789,0.142538,-0.142538,0.989789,-63.3577,-1253.71)">
                    <path d="M643.952,1561.1C634.87,1552.7 626.213,1543.66 618.051,1533.97C654.502,1438.02 740.579,1364.17 849.275,1348.52L849.275,1348.52C850.645,1348.32 852.014,1348.13 853.396,1347.96C860.941,1358.13 867.748,1368.64 873.826,1379.42C867.241,1379.87 860.645,1380.56 854.026,1381.51L854.026,1381.51C752.037,1396.2 672.532,1468.73 643.952,1561.1Z" style="fill:rgb(18,92,130);"/>
                </g>
                <g transform="matrix(0.989789,0.142538,-0.142538,0.989789,-63.3577,-1253.71)">
                    <path d="M848.914,1640.5L847.704,1640.5C848.107,1640.5 848.511,1640.5 848.914,1640.5ZM846.353,1640.5C846.768,1640.5 847.184,1640.5 847.599,1640.5L846.353,1640.5ZM843.708,1640.48L842.421,1640.46C843.72,1640.48 845.02,1640.49 846.321,1640.5L845.025,1640.49C844.586,1640.49 844.147,1640.48 843.708,1640.48ZM850.249,1640.49L849.044,1640.5C849.445,1640.5 849.847,1640.49 850.249,1640.49ZM851.596,1640.47L850.365,1640.49C850.774,1640.48 851.185,1640.48 851.596,1640.47ZM852.242,1640.47L851.649,1640.47L852.925,1640.45L852.242,1640.47ZM841.105,1640.43C841.526,1640.44 841.948,1640.45 842.371,1640.45L841.105,1640.43ZM854.164,1640.43L852.93,1640.45C853.343,1640.45 853.753,1640.44 854.164,1640.43ZM839.769,1640.4C840.195,1640.41 840.62,1640.42 841.045,1640.43L839.769,1640.4ZM855.463,1640.4L854.291,1640.43C854.683,1640.42 855.073,1640.41 855.463,1640.4ZM833.185,1640.15C835.369,1640.26 837.555,1640.34 839.743,1640.4C837.556,1640.34 835.369,1640.26 833.185,1640.15ZM856.791,1640.36L855.645,1640.39C856.027,1640.38 856.409,1640.37 856.791,1640.36ZM858.134,1640.32L856.987,1640.36C857.368,1640.34 857.751,1640.33 858.134,1640.32ZM859.487,1640.27L858.311,1640.31C858.704,1640.3 859.096,1640.28 859.487,1640.27ZM860.172,1640.24L859.595,1640.26L860.755,1640.21L860.172,1640.24ZM862.026,1640.16L860.864,1640.21C861.252,1640.19 861.639,1640.17 862.026,1640.16ZM818.769,1639.12C823.562,1639.58 828.366,1639.92 833.177,1640.15C828.365,1639.92 823.562,1639.58 818.769,1639.12ZM863.342,1640.09L862.225,1640.15C862.599,1640.13 862.97,1640.11 863.342,1640.09ZM864.679,1640.02L863.578,1640.08C863.947,1640.06 864.313,1640.04 864.679,1640.02ZM866.03,1639.94L864.919,1640C865.291,1639.98 865.661,1639.96 866.03,1639.94ZM867.387,1639.85L866.239,1639.92C866.621,1639.9 867.004,1639.88 867.387,1639.85ZM868.099,1639.8L867.515,1639.84L868.618,1639.77L868.099,1639.8ZM869.91,1639.67L868.785,1639.76C869.158,1639.73 869.534,1639.7 869.91,1639.67ZM871.237,1639.57L870.142,1639.66C870.509,1639.63 870.873,1639.6 871.237,1639.57ZM872.581,1639.47L871.491,1639.55C871.855,1639.53 872.218,1639.5 872.581,1639.47ZM873.935,1639.35L872.825,1639.44C873.196,1639.41 873.565,1639.38 873.935,1639.35ZM874.58,1639.29L874.133,1639.33L875.282,1639.23L874.58,1639.29ZM876.02,1639.16L875.385,1639.22L876.516,1639.11L876.02,1639.16ZM817.462,1638.99C817.882,1639.03 818.303,1639.07 818.723,1639.12L817.462,1638.99ZM877.818,1638.98L876.683,1639.1C877.062,1639.06 877.44,1639.02 877.818,1638.98ZM816.138,1638.86C816.559,1638.9 816.98,1638.94 817.401,1638.99L816.138,1638.86ZM879.149,1638.85L878.033,1638.96C878.407,1638.92 878.778,1638.88 879.149,1638.85ZM814.818,1638.71L813.526,1638.57C814.385,1638.67 815.245,1638.76 816.104,1638.85L814.818,1638.71ZM880.495,1638.7L879.371,1638.82C879.746,1638.78 880.121,1638.74 880.495,1638.7ZM881.85,1638.55L880.69,1638.68C881.077,1638.64 881.463,1638.59 881.85,1638.55ZM812.287,1638.43C812.692,1638.47 813.098,1638.52 813.504,1638.57L812.287,1638.43ZM887.52,1637.85L885.889,1638.06L884.535,1638.23L883.202,1638.39L881.974,1638.54C883.822,1638.32 885.672,1638.09 887.52,1637.85ZM810.999,1638.27C811.383,1638.32 811.767,1638.37 812.15,1638.41L810.999,1638.27ZM809.688,1638.11C810.059,1638.16 810.43,1638.2 810.802,1638.25L809.688,1638.11ZM808.363,1637.94C808.729,1637.99 809.094,1638.03 809.46,1638.08L808.363,1637.94ZM807.098,1637.77L808.13,1637.91L807.716,1637.85L807.098,1637.77ZM891.106,1637.34L889.4,1637.59L887.52,1637.85C888.714,1637.69 889.91,1637.52 891.106,1637.34ZM805.893,1637.6L806.825,1637.73L806.29,1637.66L805.893,1637.6ZM804.617,1637.42C804.938,1637.47 805.26,1637.52 805.581,1637.56L804.617,1637.42ZM803.311,1637.23C803.611,1637.28 803.91,1637.32 804.21,1637.36L803.311,1637.23ZM891.635,1636C891.46,1636.45 891.284,1636.9 891.106,1637.34L891.106,1637.34L891.635,1636ZM801.99,1637.03C802.271,1637.08 802.553,1637.12 802.834,1637.16L801.99,1637.03ZM800.909,1636.87L801.45,1636.95L801.306,1636.93L800.909,1636.87ZM799.674,1636.67L800.048,1636.73L799.884,1636.7L799.674,1636.67ZM892.931,1632.62L892.929,1632.62L892.326,1634.21L891.635,1636C892.074,1634.88 892.505,1633.75 892.931,1632.62ZM782.566,1633.41L782.588,1632.81L782.566,1633.41ZM782.614,1632.21L782.597,1632.61L782.614,1632.21L782.614,1632.21ZM782.643,1631.61L782.624,1631.99L782.643,1631.61L782.643,1631.61ZM893.183,1631.95L893.176,1631.97L893.265,1631.73L893.183,1631.95ZM782.675,1631.01L782.655,1631.39L782.675,1631.01L782.675,1631.01ZM893.435,1631.27L893.421,1631.31L893.527,1631.02L893.435,1631.27ZM782.71,1630.41L782.688,1630.79L782.71,1630.42L782.71,1630.41ZM893.686,1630.59L893.664,1630.65L893.776,1630.35L893.686,1630.59ZM782.749,1629.81L782.725,1630.19L782.749,1629.82L782.749,1629.81ZM893.935,1629.92L893.906,1629.99L894.022,1629.68L893.935,1629.92ZM782.791,1629.22L782.765,1629.59L782.791,1629.23L782.791,1629.22ZM894.182,1629.24L894.146,1629.34L894.264,1629.01L894.182,1629.24ZM782.837,1628.62L782.809,1628.99L782.836,1628.63L782.837,1628.62ZM894.427,1628.56L894.385,1628.67L894.503,1628.35L894.427,1628.56ZM782.885,1628.02L782.855,1628.39L782.884,1628.04L782.885,1628.02ZM894.671,1627.88L894.622,1628.02L894.741,1627.68L894.671,1627.88ZM782.937,1627.43L782.905,1627.79L782.936,1627.44L782.937,1627.43ZM894.913,1627.2L894.858,1627.36L894.977,1627.02L894.913,1627.2ZM782.993,1626.83L782.959,1627.2L782.991,1626.85L782.993,1626.83ZM895.154,1626.52L895.092,1626.69L895.211,1626.36L895.154,1626.52ZM783.051,1626.24L783.015,1626.6L783.049,1626.26L783.051,1626.24ZM895.393,1625.84L895.324,1626.03L895.444,1625.69L895.393,1625.84ZM783.113,1625.65L783.075,1626.01L783.111,1625.66L783.113,1625.65ZM783.178,1625.06L783.138,1625.41L783.176,1625.07L783.178,1625.06ZM895.63,1625.16L895.555,1625.37L895.674,1625.03L895.63,1625.16ZM783.246,1624.46L783.205,1624.82L783.243,1624.48L783.246,1624.46ZM895.865,1624.48L895.784,1624.71L895.903,1624.36L895.865,1624.48ZM783.317,1623.87L783.274,1624.23L783.315,1623.89L783.317,1623.87ZM896.099,1623.79L896.011,1624.05L896.131,1623.7L896.099,1623.79ZM783.392,1623.28L783.347,1623.64L783.389,1623.31L783.392,1623.28ZM896.332,1623.11L896.236,1623.39L896.357,1623.04L896.332,1623.11ZM783.47,1622.7L783.423,1623.05L783.466,1622.72L783.47,1622.7ZM896.562,1622.43L896.459,1622.73L896.581,1622.37L896.562,1622.43ZM783.551,1622.11L783.502,1622.46L783.547,1622.13L783.551,1622.11ZM896.791,1621.74L896.678,1622.08L896.803,1621.7L896.791,1621.74ZM783.635,1621.52L783.585,1621.87L783.631,1621.55L783.635,1621.52ZM897.244,1620.37C897.169,1620.6 897.094,1620.83 897.018,1621.06L897.022,1621.05L897.244,1620.37ZM783.722,1620.93L783.671,1621.28L783.718,1620.96L783.722,1620.93ZM783.813,1620.35L783.76,1620.69L783.808,1620.38L783.813,1620.35ZM783.907,1619.77L783.852,1620.11L783.902,1619.8L783.907,1619.77ZM897.468,1619.69L897.453,1619.73L897.576,1619.35L897.468,1619.69ZM784.003,1619.18L783.947,1619.52L783.998,1619.21L784.003,1619.18ZM897.69,1619L897.669,1619.07L897.788,1618.7L897.69,1619ZM784.103,1618.6L784.045,1618.94L784.098,1618.63L784.103,1618.6ZM897.911,1618.32L897.884,1618.4L898.001,1618.03L897.911,1618.32ZM784.207,1618.02L784.147,1618.35L784.2,1618.05L784.207,1618.02ZM784.313,1617.44L784.252,1617.77L784.306,1617.47L784.313,1617.44ZM898.13,1617.63L898.097,1617.73L898.212,1617.37L898.13,1617.63ZM784.422,1616.86L784.36,1617.19L784.415,1616.89L784.422,1616.86ZM898.347,1616.94L898.308,1617.06L898.422,1616.7L898.347,1616.94ZM784.535,1616.28L784.471,1616.61L784.527,1616.31L784.535,1616.28ZM898.563,1616.25L898.518,1616.39L898.63,1616.04L898.563,1616.25ZM784.65,1615.7L784.585,1616.03L784.643,1615.74L784.65,1615.7ZM898.777,1615.57L898.727,1615.73L898.838,1615.37L898.777,1615.57ZM784.769,1615.12L784.702,1615.45L784.761,1615.16L784.769,1615.12ZM898.989,1614.88L898.933,1615.06L899.043,1614.7L898.989,1614.88ZM784.891,1614.55L784.823,1614.87L784.882,1614.59L784.891,1614.55ZM899.199,1614.19L899.138,1614.39L899.247,1614.03L899.199,1614.19ZM785.016,1613.97L784.946,1614.29L785.007,1614.01L785.016,1613.97ZM899.408,1613.5L899.342,1613.72L899.45,1613.36L899.408,1613.5ZM785.144,1613.4L785.073,1613.72L785.134,1613.44L785.144,1613.4ZM785.275,1612.83L785.203,1613.14L785.265,1612.87L785.275,1612.83ZM899.616,1612.81L899.544,1613.05L899.651,1612.69L899.616,1612.81ZM785.409,1612.25L785.336,1612.57L785.399,1612.3L785.409,1612.25ZM899.821,1612.12L899.744,1612.38L899.851,1612.02L899.821,1612.12ZM785.546,1611.68L785.472,1611.99L785.535,1611.73L785.546,1611.68ZM900.025,1611.43L899.943,1611.7L900.049,1611.35L900.025,1611.43ZM785.686,1611.11L785.611,1611.42L785.675,1611.16L785.686,1611.11ZM900.227,1610.74L900.141,1611.03L900.245,1610.67L900.227,1610.74ZM785.83,1610.54L785.753,1610.85L785.818,1610.59L785.83,1610.54ZM900.428,1610.04L900.336,1610.36L900.44,1610L900.428,1610.04ZM785.976,1609.98L785.898,1610.28L785.963,1610.02L785.976,1609.98ZM786.125,1609.41L786.046,1609.71L786.112,1609.46L786.125,1609.41ZM900.627,1609.35L900.53,1609.69L900.633,1609.33L900.627,1609.35ZM786.277,1608.85L786.198,1609.14L786.264,1608.89L786.277,1608.85ZM900.824,1608.66L900.711,1609.06L900.82,1608.67L900.916,1608.34L900.824,1608.66ZM786.432,1608.28L786.352,1608.57L786.419,1608.33L786.432,1608.28ZM786.591,1607.72L786.509,1608.01L786.577,1607.77L786.591,1607.72ZM901.02,1607.97L901.01,1608L901.104,1607.66L901.02,1607.97ZM786.752,1607.15L786.67,1607.44L786.737,1607.2L786.752,1607.15ZM901.214,1607.27L901.199,1607.33L901.292,1606.99L901.214,1607.27ZM786.916,1606.59L786.833,1606.88L786.901,1606.64L786.916,1606.59ZM901.406,1606.58L901.386,1606.65L901.478,1606.32L901.406,1606.58ZM787.083,1606.03L787,1606.31L787.068,1606.09L787.083,1606.03ZM901.597,1605.88L901.572,1605.97L901.663,1605.64L901.597,1605.88ZM787.253,1605.48L787.169,1605.75L787.237,1605.53L787.253,1605.48ZM901.786,1605.19L901.756,1605.3L901.846,1604.97L901.786,1605.19ZM787.426,1604.92L787.341,1605.19L787.41,1604.97L787.426,1604.92ZM787.602,1604.36L787.517,1604.63L787.585,1604.41L787.602,1604.36ZM901.973,1604.5L901.939,1604.62L902.028,1604.29L901.973,1604.5ZM787.781,1603.81L787.695,1604.07L787.764,1603.86L787.781,1603.81ZM902.158,1603.8L902.121,1603.94L902.208,1603.61L902.158,1603.8ZM787.963,1603.25L787.877,1603.52L787.945,1603.31L787.963,1603.25ZM902.342,1603.1L902.3,1603.26L902.386,1602.94L902.342,1603.1ZM863.525,1447.5C779.786,1459.56 716.475,1524.18 702.198,1603.13L702.198,1603.13C716.475,1524.18 779.786,1459.56 863.525,1447.5ZM788.148,1602.7L788.061,1602.96L788.129,1602.75L788.148,1602.7ZM902.525,1602.41L902.479,1602.58L902.563,1602.26L902.525,1602.41ZM788.335,1602.15L788.248,1602.4L788.317,1602.2L788.335,1602.15ZM902.705,1601.71L902.656,1601.9L902.738,1601.58L902.705,1601.71ZM788.526,1601.6L788.438,1601.85L788.507,1601.65L788.526,1601.6ZM788.719,1601.05L788.632,1601.3L788.7,1601.11L788.719,1601.05ZM902.884,1601.01L902.832,1601.22L902.912,1600.9L902.884,1601.01ZM788.915,1600.5L788.828,1600.75L788.896,1600.56L788.915,1600.5ZM903.061,1600.32L903.006,1600.53L903.084,1600.23L903.061,1600.32ZM789.115,1599.96L789.027,1600.2L789.094,1600.01L789.115,1599.96ZM903.237,1599.62L903.18,1599.84L903.254,1599.55L903.237,1599.62ZM789.317,1599.41L789.229,1599.65L789.296,1599.47L789.317,1599.41ZM903.411,1598.92L903.354,1599.15L903.423,1598.87L903.411,1598.92ZM789.521,1598.87L789.433,1599.1L789.5,1598.92L789.521,1598.87ZM789.729,1598.33L789.641,1598.56L789.708,1598.38L789.729,1598.33ZM903.583,1598.22L903.53,1598.44L903.591,1598.19L903.583,1598.22ZM789.94,1597.78L789.852,1598.01L789.918,1597.84L789.94,1597.78ZM903.753,1597.52L903.715,1597.68L903.756,1597.51L903.753,1597.52ZM790.153,1597.24L790.065,1597.47L790.131,1597.3L790.153,1597.24ZM790.369,1596.71L790.282,1596.92L790.347,1596.76L790.369,1596.71ZM790.588,1596.17L790.501,1596.38L790.566,1596.22L790.588,1596.17ZM904.089,1596.12L904.086,1596.14L904.125,1595.97L904.089,1596.12ZM790.81,1595.63L790.723,1595.84L790.787,1595.69L790.81,1595.63ZM904.255,1595.42L904.247,1595.46L904.299,1595.24L904.255,1595.42ZM791.034,1595.1L790.948,1595.3L791.011,1595.15L791.034,1595.1ZM904.419,1594.72L904.407,1594.77L904.464,1594.53L904.419,1594.72ZM791.262,1594.57L791.176,1594.77L791.238,1594.62L791.262,1594.57ZM791.492,1594.03L791.406,1594.23L791.468,1594.09L791.492,1594.03ZM686.978,1594.13C676.904,1587.77 667.159,1580.76 657.798,1573.12C682.578,1483.34 758.392,1412.12 856.401,1398.01L856.402,1398.01C865.102,1396.76 873.761,1395.98 882.341,1395.67C887.619,1406.55 892.189,1417.65 896.06,1428.91C884.579,1428.63 872.909,1429.31 861.153,1431L861.153,1431C772.28,1443.8 704.577,1511.06 686.978,1594.13ZM904.581,1594.02L904.566,1594.09L904.624,1593.83L904.581,1594.02ZM791.724,1593.5L791.64,1593.7L791.701,1593.56L791.724,1593.5ZM904.741,1593.32L904.723,1593.4L904.782,1593.14L904.741,1593.32ZM791.96,1592.98L791.876,1593.16L791.936,1593.03L791.96,1592.98ZM904.9,1592.62L904.878,1592.72L904.938,1592.45L904.9,1592.62ZM792.198,1592.45L792.115,1592.63L792.175,1592.5L792.198,1592.45ZM792.439,1591.92L792.357,1592.1L792.416,1591.97L792.439,1591.92ZM905.057,1591.92L905.032,1592.03L905.091,1591.77L905.057,1591.92ZM792.683,1591.4L792.602,1591.57L792.659,1591.45L792.683,1591.4ZM905.213,1591.22L905.185,1591.34L905.243,1591.08L905.213,1591.22ZM792.93,1590.88L792.849,1591.05L792.906,1590.92L792.93,1590.88ZM905.366,1590.52L905.337,1590.65L905.393,1590.39L905.366,1590.52ZM793.179,1590.35L793.1,1590.52L793.155,1590.4L793.179,1590.35ZM793.431,1589.83L793.353,1590L793.407,1589.88L793.431,1589.83ZM905.518,1589.81L905.487,1589.96L905.541,1589.71L905.518,1589.81ZM793.685,1589.32L793.608,1589.47L793.662,1589.36L793.685,1589.32ZM905.669,1589.11L905.636,1589.26L905.688,1589.02L905.669,1589.11ZM793.943,1588.8L793.867,1588.95L793.919,1588.85L793.943,1588.8ZM905.818,1588.41L905.784,1588.57L905.832,1588.34L905.818,1588.41ZM794.203,1588.28L794.128,1588.43L794.179,1588.33L794.203,1588.28ZM794.465,1587.77L794.392,1587.91L794.442,1587.81L794.465,1587.77ZM905.965,1587.7L905.932,1587.86L905.976,1587.65L905.965,1587.7ZM794.73,1587.26L794.659,1587.39L794.707,1587.3L794.73,1587.26ZM906.11,1587L906.081,1587.14L906.117,1586.96L906.11,1587ZM794.998,1586.75L794.929,1586.88L794.975,1586.79L794.998,1586.75ZM906.254,1586.29L906.233,1586.39L906.257,1586.28L906.254,1586.29ZM795.269,1586.24L795.201,1586.36L795.246,1586.28L795.269,1586.24ZM795.542,1585.73L795.476,1585.85L795.52,1585.77L795.542,1585.73ZM795.818,1585.22L795.753,1585.34L795.796,1585.26L795.818,1585.22ZM796.096,1584.72L796.034,1584.83L796.075,1584.76L796.096,1584.72ZM796.377,1584.22L796.317,1584.32L796.356,1584.25L796.377,1584.22ZM796.66,1583.71L796.602,1583.82L796.64,1583.75L796.66,1583.71ZM906.819,1583.43L906.81,1583.48L906.819,1583.43ZM796.947,1583.21L796.891,1583.31L796.927,1583.25L796.947,1583.21ZM797.235,1582.72L797.182,1582.81L797.216,1582.75L797.235,1582.72ZM906.947,1582.77L906.942,1582.79L906.965,1582.67L906.947,1582.77ZM797.527,1582.22L797.475,1582.31L797.508,1582.25L797.527,1582.22ZM907.08,1582.06L907.073,1582.1L907.102,1581.94L907.08,1582.06ZM797.82,1581.73L797.772,1581.81L797.802,1581.76L797.82,1581.73ZM907.212,1581.36L907.202,1581.41L907.235,1581.23L907.212,1581.36ZM798.117,1581.23L798.07,1581.31L798.099,1581.26L798.117,1581.23ZM798.416,1580.74L798.372,1580.81L798.399,1580.77L798.416,1580.74ZM907.342,1580.65L907.33,1580.71L907.364,1580.53L907.342,1580.65ZM798.717,1580.25L798.676,1580.32L798.701,1580.28L798.717,1580.25ZM907.471,1579.94L907.457,1580.02L907.491,1579.83L907.471,1579.94ZM799.021,1579.76L798.983,1579.82L799.006,1579.79L799.021,1579.76ZM799.327,1579.28L799.292,1579.33L799.314,1579.3L799.327,1579.28ZM907.598,1579.23L907.582,1579.32L907.616,1579.13L907.598,1579.23ZM799.636,1578.79L799.604,1578.84L799.624,1578.81L799.636,1578.79ZM907.723,1578.53L907.705,1578.62L907.739,1578.43L907.723,1578.53ZM799.948,1578.31L799.918,1578.35L799.936,1578.33L799.948,1578.31ZM907.846,1577.82L907.828,1577.92L907.86,1577.74L907.846,1577.82ZM800.261,1577.83L800.236,1577.87L800.251,1577.84L800.261,1577.83ZM800.578,1577.35L800.555,1577.38L800.569,1577.36L800.578,1577.35ZM907.968,1577.11L907.949,1577.22L907.979,1577.04L907.968,1577.11ZM800.897,1576.87L800.877,1576.9L800.897,1576.87ZM908.088,1576.4L908.07,1576.51L908.097,1576.35L908.088,1576.4ZM801.218,1576.4L801.202,1576.42L801.218,1576.4ZM801.541,1575.92L801.529,1575.94L801.541,1575.92ZM908.206,1575.69L908.19,1575.79L908.212,1575.66L908.206,1575.69ZM801.868,1575.45L801.859,1575.46L801.868,1575.45ZM908.323,1574.99L908.312,1575.06L908.326,1574.97L908.323,1574.99ZM802.196,1574.98L802.191,1574.99L802.196,1574.98ZM802.527,1574.51L802.526,1574.51L802.527,1574.51ZM908.439,1574.27L908.436,1574.29L908.439,1574.27ZM908.988,1570.73L908.988,1570.73L908.988,1570.73ZM909.1,1569.96L909.091,1570.03L909.1,1569.96ZM909.196,1569.3L909.192,1569.33L909.207,1569.23L909.196,1569.3ZM909.297,1568.59L909.291,1568.63L909.309,1568.51L909.297,1568.59ZM909.397,1567.88L909.39,1567.93L909.409,1567.8L909.397,1567.88ZM909.495,1567.17L909.486,1567.23L909.506,1567.09L909.495,1567.17ZM909.592,1566.46L909.582,1566.53L909.602,1566.38L909.592,1566.46ZM909.686,1565.75L909.676,1565.83L909.695,1565.68L909.686,1565.75ZM909.779,1565.03L909.769,1565.12L909.786,1564.98L909.779,1565.03ZM909.871,1564.32L909.861,1564.4L909.876,1564.28L909.871,1564.32ZM909.96,1563.61L909.952,1563.68L909.964,1563.58L909.96,1563.61ZM910.05,1562.88L910.043,1562.94L910.05,1562.88ZM910.62,1557.87L910.616,1557.91L910.62,1557.87ZM910.691,1557.18L910.688,1557.21L910.698,1557.12L910.691,1557.18ZM910.764,1556.47L910.76,1556.51L910.772,1556.39L910.764,1556.47ZM910.835,1555.76L910.829,1555.81L910.843,1555.67L910.835,1555.76ZM910.904,1555.04L910.898,1555.11L910.912,1554.95L910.904,1555.04ZM910.971,1554.33L910.964,1554.4L910.979,1554.24L910.971,1554.33ZM911.037,1553.61L911.029,1553.7L911.044,1553.54L911.037,1553.61ZM911.101,1552.89L911.093,1552.99L911.107,1552.83L911.101,1552.89ZM911.164,1552.18L911.155,1552.28L911.169,1552.12L911.164,1552.18ZM911.225,1551.46L911.217,1551.56L911.228,1551.42L911.225,1551.46ZM911.284,1550.75L911.277,1550.84L911.286,1550.72L911.284,1550.75ZM911.341,1550.03L911.336,1550.09L911.342,1550.02L911.341,1550.03ZM877.783,1546.48L877.78,1546.48L877.783,1546.48ZM875.398,1529.98C875.398,1529.98 875.398,1529.98 875.398,1529.98ZM875.407,1529.98L875.407,1529.98L875.407,1529.98ZM912.271,1528.31L912.271,1528.34L912.271,1528.27L912.271,1528.31ZM912.277,1526.96L912.277,1526.98L912.277,1526.96ZM912.26,1522.95L912.26,1522.99L912.259,1522.89L912.26,1522.95ZM912.242,1521.61L912.243,1521.69L912.241,1521.56L912.242,1521.61ZM912.153,1517.59L912.155,1517.67L912.149,1517.44L912.153,1517.59ZM912.112,1516.25L912.117,1516.42L912.106,1516.1L912.112,1516.25ZM912.064,1514.91L912.072,1515.13L912.061,1514.82L912.064,1514.91ZM912.011,1513.57L912.012,1513.6L912.011,1513.57L912.009,1513.52L912.011,1513.57ZM911.951,1512.23L911.952,1512.25L911.942,1512.04L911.951,1512.23ZM911.886,1510.89L911.887,1510.92L911.869,1510.57L911.886,1510.89ZM911.814,1509.55L911.817,1509.59L911.789,1509.1L911.814,1509.55ZM911.737,1508.21L911.74,1508.27L911.702,1507.65L911.737,1508.21ZM911.654,1506.87L911.658,1506.94L911.61,1506.21L911.654,1506.87ZM911.564,1505.53L911.57,1505.62L911.511,1504.78L911.564,1505.53ZM911.469,1504.19L911.476,1504.3L911.405,1503.35L911.469,1504.19ZM911.227,1501.12L911.27,1501.64L911.377,1502.98C911.329,1502.36 911.279,1501.74 911.227,1501.12ZM901.306,1445.8L901.307,1445.8C906.317,1463.79 909.597,1482.11 911.175,1500.51C909.597,1482.11 906.317,1463.79 901.306,1445.8Z" style="fill:rgb(69,61,31);"/>
                </g>
                <g transform="matrix(0.989789,0.142538,-0.142538,0.989789,-63.3577,-1253.71)">
                    <path d="M847.202,1640.5L847.943,1640.5L847.659,1640.5L847.202,1640.5ZM849.904,1640.49L849.554,1640.49C849.035,1640.5 848.517,1640.5 848.001,1640.5C848.635,1640.5 849.269,1640.5 849.904,1640.49ZM845.598,1640.49L844.856,1640.49C845.629,1640.5 846.399,1640.5 847.169,1640.5L846.389,1640.5C846.125,1640.5 845.862,1640.5 845.598,1640.49ZM855.811,1640.39L854.104,1640.43L851.813,1640.47L850.123,1640.49C852.017,1640.48 853.914,1640.44 855.811,1640.39ZM844.11,1640.48L844.716,1640.49L844.367,1640.48L844.11,1640.48ZM843.339,1640.47L843.929,1640.48L843.708,1640.48L843.339,1640.47ZM842.458,1640.46L843.173,1640.47L843.05,1640.47L842.458,1640.46ZM841.673,1640.44C841.926,1640.45 842.178,1640.45 842.43,1640.46L841.673,1640.44ZM840.941,1640.43L841.521,1640.44L841.075,1640.43L840.941,1640.43ZM840.205,1640.41L840.695,1640.42L840.417,1640.41L840.205,1640.41ZM839.455,1640.39L839.934,1640.4L839.759,1640.4L839.455,1640.39ZM856.882,1640.36C856.662,1640.37 856.443,1640.37 856.223,1640.38L855.908,1640.39L857.235,1640.35L856.882,1640.36ZM838.638,1640.37L839.192,1640.38L839.101,1640.38L838.638,1640.37ZM837.744,1640.34C837.982,1640.35 838.219,1640.35 838.456,1640.36L837.744,1640.34ZM858.199,1640.32C857.98,1640.32 857.76,1640.33 857.541,1640.34L857.334,1640.34L858.701,1640.3L858.199,1640.32ZM837.017,1640.31L837.476,1640.33L837.127,1640.32L837.017,1640.31ZM836.287,1640.29L836.7,1640.3L836.469,1640.3L836.287,1640.29ZM861.318,1640.19L858.742,1640.3C859.6,1640.26 860.459,1640.23 861.318,1640.19ZM835.55,1640.26L835.957,1640.28L835.811,1640.27L835.55,1640.26ZM834.777,1640.23L835.223,1640.25L835.154,1640.24L834.777,1640.23ZM833.81,1640.18L834.448,1640.21L833.839,1640.19L833.81,1640.18ZM863.666,1640.07L861.366,1640.19C862.134,1640.15 862.9,1640.11 863.666,1640.07ZM833.084,1640.15L833.476,1640.17L833.181,1640.15L833.084,1640.15ZM832.357,1640.11L832.728,1640.13L832.524,1640.12L832.357,1640.11ZM831.626,1640.08L831.996,1640.1L831.867,1640.09L831.626,1640.08ZM864.786,1640.01C864.567,1640.02 864.347,1640.04 864.128,1640.05L863.759,1640.07L865.179,1639.99L864.786,1640.01ZM830.87,1640.04L831.268,1640.06L831.209,1640.05L830.87,1640.04ZM829.869,1639.98L830.363,1640.01L829.895,1639.98L829.869,1639.98ZM869.963,1639.67L867.38,1639.85L865.24,1639.99C866.815,1639.89 868.389,1639.79 869.963,1639.67ZM829.143,1639.93L829.516,1639.96L829.239,1639.94L829.143,1639.93ZM828.416,1639.89L828.779,1639.91L828.582,1639.9L828.416,1639.89ZM827.681,1639.84L828.052,1639.87L827.925,1639.86L827.681,1639.84ZM826.911,1639.79L827.327,1639.82L827.269,1639.81L826.911,1639.79ZM825.923,1639.72L826.457,1639.76L825.956,1639.72L825.923,1639.72ZM825.195,1639.67L825.593,1639.7L825.3,1639.67L825.195,1639.67ZM872.291,1639.49L869.982,1639.67C870.752,1639.61 871.522,1639.55 872.291,1639.49ZM824.462,1639.61L824.853,1639.64L824.644,1639.62L824.462,1639.61ZM823.714,1639.55L824.124,1639.59L823.988,1639.57L823.714,1639.55ZM822.887,1639.49L823.399,1639.53L823.332,1639.52L822.887,1639.49ZM874.577,1639.29L872.364,1639.48C873.101,1639.42 873.839,1639.36 874.577,1639.29ZM821.971,1639.41L822.668,1639.47L822.02,1639.41L821.971,1639.41ZM821.238,1639.35L821.705,1639.39L821.365,1639.36L821.238,1639.35ZM820.495,1639.28L820.949,1639.32L820.71,1639.3L820.495,1639.28ZM877.773,1638.99L876.021,1639.16L874.585,1639.29C875.647,1639.2 876.71,1639.1 877.773,1638.99ZM819.723,1639.21L820.214,1639.25L820.054,1639.24L819.723,1639.21ZM818.784,1639.12L819.486,1639.19L819.399,1639.18L818.784,1639.12ZM818.015,1639.05C818.263,1639.07 818.512,1639.09 818.761,1639.12L818.015,1639.05ZM817.273,1638.97L817.851,1639.03L817.435,1638.99L817.273,1638.97ZM880.124,1638.74L877.831,1638.98C878.595,1638.9 879.359,1638.83 880.124,1638.74ZM816.514,1638.89L817.067,1638.95L816.78,1638.92L816.514,1638.89ZM815.704,1638.81L816.321,1638.87L816.126,1638.85L815.704,1638.81ZM814.833,1638.72L814.052,1638.63C814.563,1638.69 815.075,1638.74 815.588,1638.8L814.833,1638.72ZM882.484,1638.48L880.204,1638.73C880.962,1638.65 881.723,1638.57 882.484,1638.48ZM813.298,1638.54L814.032,1638.63L813.51,1638.57L813.298,1638.54ZM812.517,1638.45L813.209,1638.53L812.857,1638.49L812.517,1638.45ZM883.575,1638.35L883.202,1638.39C882.973,1638.42 882.743,1638.45 882.512,1638.47L883.575,1638.35ZM877.78,1546.48C832.308,1553.03 799.431,1591.98 799.173,1636.59C803.584,1637.31 808.009,1637.92 812.448,1638.44C808.012,1637.92 803.585,1637.31 799.173,1636.59L799.173,1636.59C799.431,1591.98 832.308,1553.03 877.78,1546.48ZM885.973,1638.05L885.889,1638.06L884.535,1638.23L884.145,1638.28L885.973,1638.05ZM887.52,1637.85L886.33,1638L888.355,1637.73L887.52,1637.85ZM891.106,1637.34C891.106,1637.34 889.4,1637.59 889.4,1637.59L889.066,1637.63L891.106,1637.34ZM892.365,1634.11L892.326,1634.21L891.635,1636L892.365,1634.11ZM893.346,1631.51C893.208,1631.88 893.069,1632.25 892.929,1632.62L892.523,1633.69L893.346,1631.51ZM782.588,1632.81L782.566,1633.41C754.658,1627.26 727.561,1617.13 702.198,1603.13C716.475,1524.18 779.786,1459.56 863.528,1447.5L863.528,1447.5C876.281,1445.66 888.924,1445.13 901.306,1445.8C906.419,1464.16 909.73,1482.86 911.27,1501.64L911.38,1503.02L911.48,1504.35L911.574,1505.68L911.663,1507.01L911.745,1508.34L911.821,1509.67L911.892,1511.01L911.957,1512.34L912.011,1513.57C912.256,1519.38 912.332,1525.19 912.241,1530.99C900.426,1528.6 888.012,1528.17 875.407,1529.98L875.398,1529.98C822.904,1537.55 784.621,1581.65 782.588,1632.81ZM894.649,1627.94L894.098,1629.47L893.369,1631.45C893.803,1630.28 894.23,1629.11 894.649,1627.94ZM895.124,1626.6L894.701,1627.8C894.843,1627.4 894.984,1627 895.124,1626.6ZM895.984,1624.13L895.169,1626.48C895.444,1625.69 895.715,1624.91 895.984,1624.13ZM896.732,1621.92L896.017,1624.03C896.258,1623.33 896.496,1622.62 896.732,1621.92ZM897.236,1620.4L896.772,1621.8C896.928,1621.33 897.082,1620.87 897.236,1620.4ZM898.179,1617.47L897.63,1619.19L897.268,1620.3C897.577,1619.36 897.88,1618.41 898.179,1617.47ZM898.897,1615.17L898.223,1617.33C898.45,1616.61 898.675,1615.89 898.897,1615.17ZM899.286,1613.9C899.22,1614.12 899.154,1614.34 899.088,1614.55L898.925,1615.08L899.422,1613.45L899.286,1613.9ZM899.918,1611.79L899.68,1612.59L899.431,1613.42C899.595,1612.88 899.757,1612.33 899.918,1611.79ZM900.065,1611.29L899.955,1611.66L900.156,1610.98L900.065,1611.29ZM901.303,1606.95L900.802,1608.74L900.426,1610.05L900.197,1610.84C900.574,1609.55 900.943,1608.25 901.303,1606.95ZM911.502,1547.88C910.463,1562.36 908.382,1576.75 905.274,1590.93L904.899,1592.63L904.585,1594.01L904.231,1595.52L903.685,1597.8L903.208,1599.73L902.87,1601.07C902.518,1602.44 902.157,1603.82 901.786,1605.19L901.336,1606.83C906.673,1587.55 910.074,1567.79 911.503,1547.88L911.502,1547.88ZM878.325,1546.4C884.213,1545.59 890.05,1545.36 895.778,1545.66C890.049,1545.36 884.212,1545.59 878.325,1546.4Z" style="fill:rgb(240,87,35);"/>
                </g>
                <g transform="matrix(0.989789,0.142538,-0.142538,0.989789,-63.3577,-1253.71)">
                    <path d="M849.554,1640.49C832.674,1640.6 815.815,1639.29 799.173,1636.59C799.431,1591.98 832.308,1553.03 877.782,1546.48L877.782,1546.48C889.36,1544.81 900.747,1545.39 911.502,1547.88C910.463,1562.36 908.382,1576.75 905.274,1590.93L905.211,1591.22L905.112,1591.67L905.102,1591.72L905.096,1591.74L905.056,1591.92L904.947,1592.41L904.931,1592.48L904.926,1592.5L904.899,1592.63L904.777,1593.16L904.759,1593.24L904.756,1593.26L904.74,1593.33L904.593,1593.97L904.585,1594.01C904.528,1594.25 904.471,1594.5 904.414,1594.74L904.409,1594.76L904.35,1595.02L904.253,1595.43L904.245,1595.46L904.231,1595.52L904.152,1595.86L904.088,1596.13L904.075,1596.18L904.051,1596.29L903.971,1596.62L903.921,1596.83L903.904,1596.9L903.869,1597.05L903.792,1597.36L903.752,1597.53L903.731,1597.61L903.685,1597.8L903.614,1598.1L903.581,1598.23L903.557,1598.33L903.499,1598.56L903.434,1598.83L903.409,1598.92L903.383,1599.03L903.311,1599.32L903.253,1599.55L903.235,1599.62L903.208,1599.73L903.121,1600.08L903.07,1600.28L903.06,1600.32L903.036,1600.41L902.929,1600.84L902.886,1601L902.87,1601.07C902.518,1602.44 902.157,1603.82 901.786,1605.19L901.736,1605.38L901.61,1605.84L901.595,1605.89L901.589,1605.91L901.53,1606.13L901.423,1606.52L901.405,1606.58L901.393,1606.62L901.322,1606.88L901.23,1607.21L901.213,1607.28L901.196,1607.34L901.112,1607.64L901.034,1607.92L901.019,1607.97L900.999,1608.04L900.9,1608.39L900.834,1608.62L900.823,1608.66L900.802,1608.74L900.687,1609.14L900.632,1609.33L900.626,1609.36L900.609,1609.41L900.471,1609.89L900.426,1610.05C900.1,1611.18 899.766,1612.31 899.426,1613.44L899.407,1613.5L899.403,1613.51L899.363,1613.65L899.234,1614.07L899.198,1614.19L899.186,1614.23L899.135,1614.4L899.028,1614.75L898.988,1614.88L898.966,1614.95L898.906,1615.15L898.814,1615.44L898.776,1615.57L898.745,1615.66L898.674,1615.89L898.597,1616.14L898.562,1616.26L898.523,1616.38L898.441,1616.64L898.376,1616.85L898.346,1616.94L898.299,1617.09L898.205,1617.39L898.152,1617.56L898.129,1617.63L898.074,1617.8L897.968,1618.14L897.926,1618.27L897.91,1618.32L897.85,1618.5L897.728,1618.88L897.698,1618.98L897.689,1619L897.63,1619.19L897.487,1619.63L897.244,1620.37L897.054,1620.95L896.999,1621.12L896.871,1621.5L896.79,1621.74L896.778,1621.78L896.751,1621.86L896.644,1622.18L896.561,1622.43L896.538,1622.5L896.502,1622.6L896.409,1622.88L896.331,1623.11L896.297,1623.21L896.251,1623.35L896.169,1623.59L896.099,1623.79L896.053,1623.93L895.998,1624.09L895.927,1624.29L895.865,1624.48L895.807,1624.64L895.743,1624.83L895.683,1625L895.629,1625.16L895.559,1625.36L895.486,1625.57L895.436,1625.71L895.392,1625.84L895.308,1626.08L895.227,1626.31L895.188,1626.42L895.153,1626.52L895.055,1626.8L894.966,1627.05L894.937,1627.13L894.913,1627.2L894.795,1627.53L894.703,1627.79L894.685,1627.84L894.671,1627.88L894.518,1628.31L894.438,1628.53L894.431,1628.55C894.347,1628.78 894.262,1629.02 894.177,1629.25L894.171,1629.27L894.098,1629.47L893.934,1629.92L893.919,1629.96L893.902,1630.01L893.815,1630.24L893.685,1630.6L893.658,1630.67L893.631,1630.74L893.547,1630.97L893.435,1631.27L893.395,1631.38L893.359,1631.48L893.28,1631.69L893.183,1631.95L893.131,1632.09L893.084,1632.21L893.013,1632.4L892.929,1632.63L892.864,1632.8L892.807,1632.95L892.745,1633.11L892.674,1633.3L892.595,1633.51L892.529,1633.68L892.476,1633.82L892.416,1633.98L892.323,1634.22L892.248,1634.42L892.206,1634.53L892.158,1634.65L892.048,1634.93L891.966,1635.15L891.933,1635.23L891.897,1635.33L891.768,1635.66L891.681,1635.88L891.659,1635.94L891.635,1636L891.475,1636.41L891.395,1636.61L891.384,1636.64C891.292,1636.87 891.199,1637.11 891.106,1637.34C890.855,1637.38 890.605,1637.42 890.356,1637.45L890.326,1637.46L890.108,1637.49L889.672,1637.55L889.605,1637.56L889.545,1637.57L889.309,1637.6L888.955,1637.65L888.854,1637.66L888.764,1637.68L888.538,1637.71L888.237,1637.75L888.102,1637.77L887.982,1637.78L887.776,1637.81L887.52,1637.85L887.349,1637.87L887.201,1637.89L887.019,1637.91L886.802,1637.94L886.595,1637.97L886.419,1637.99L886.264,1638.01L886.084,1638.03L885.839,1638.07L885.637,1638.09L885.51,1638.11L885.366,1638.13L885.079,1638.16L884.855,1638.19L884.757,1638.2L884.648,1638.22L884.313,1638.26L884.073,1638.29L884.004,1638.3L883.93,1638.3L883.529,1638.35L883.291,1638.38L883.251,1638.39L883.211,1638.39L882.656,1638.46L882.509,1638.47L882.499,1638.48C882.249,1638.5 881.999,1638.53 881.752,1638.56L881.726,1638.56L881.499,1638.59L881.055,1638.64L881,1638.65L880.943,1638.65L880.69,1638.68L880.336,1638.72L880.248,1638.73L880.161,1638.74L879.916,1638.76L879.617,1638.8L879.496,1638.81L879.378,1638.82L879.153,1638.85L878.898,1638.87L878.744,1638.89L878.595,1638.9L878.394,1638.92L878.179,1638.95L877.992,1638.97L877.811,1638.98L877.638,1639L877.46,1639.02L877.238,1639.04L877.028,1639.06L876.882,1639.08L876.74,1639.09L876.484,1639.12L876.245,1639.14L876.128,1639.15L876.021,1639.16L875.728,1639.19L875.461,1639.21L875.374,1639.22L875.301,1639.23L874.968,1639.26L874.677,1639.28L874.62,1639.29L874.581,1639.29L874.191,1639.33L873.894,1639.35L873.867,1639.36C873.625,1639.38 873.383,1639.4 873.138,1639.42L873.11,1639.42L872.792,1639.45L872.422,1639.48L872.386,1639.48L872.326,1639.49L872.013,1639.51L871.702,1639.54L871.635,1639.54L871.542,1639.55L871.252,1639.57L870.981,1639.59L870.884,1639.6L870.758,1639.61L870.496,1639.63L870.261,1639.65L870.133,1639.66L869.974,1639.67L869.741,1639.69L869.541,1639.7L869.382,1639.71L869.19,1639.73L868.987,1639.74L868.821,1639.75L868.632,1639.77L868.405,1639.78L868.234,1639.8L868.1,1639.8L867.882,1639.82L867.621,1639.84L867.481,1639.85L867.38,1639.85L867.133,1639.87L866.837,1639.89L866.728,1639.89L866.659,1639.9L866.386,1639.92L866.052,1639.94L865.976,1639.94L865.939,1639.94L865.648,1639.96L865.268,1639.98L865.218,1639.99L865.006,1640L864.483,1640.03L864.063,1640.05L863.777,1640.07L863.757,1640.07L863.698,1640.07L863.342,1640.09L863.056,1640.11L863.004,1640.11L862.914,1640.11L862.599,1640.13L862.336,1640.14L862.251,1640.14L862.129,1640.15L861.851,1640.16L861.615,1640.18L861.497,1640.18L861.345,1640.19L861.102,1640.2L860.894,1640.21L860.743,1640.22L860.56,1640.22L860.352,1640.23L860.173,1640.24L859.986,1640.25L859.775,1640.26L859.602,1640.26L859.452,1640.27L859.228,1640.28L858.99,1640.29L858.852,1640.29L858.731,1640.3L858.465,1640.31L858.206,1640.32L858.102,1640.32L858.011,1640.32L857.691,1640.33L857.421,1640.34L857.352,1640.34L857.29,1640.35L856.887,1640.36L856.636,1640.37L856.601,1640.37L856.569,1640.37L855.851,1640.39C855.597,1640.39 855.342,1640.4 855.09,1640.41L855.067,1640.41L854.907,1640.41L854.406,1640.42L854.328,1640.43L854.282,1640.43L854.104,1640.43L853.685,1640.44L853.565,1640.44L853.498,1640.44L853.332,1640.45L852.965,1640.45L852.797,1640.46L852.713,1640.46L852.57,1640.46L852.244,1640.47L852.024,1640.47L851.928,1640.47L851.813,1640.47L851.523,1640.48L851.242,1640.48L851.144,1640.48L851.058,1640.48L850.802,1640.48L850.446,1640.49L850.359,1640.49L850.305,1640.49L850.081,1640.49L849.624,1640.49L849.575,1640.49L849.554,1640.49Z" style="fill:rgb(236,181,27);"/>
                </g>
            </g>
            <g transform="matrix(1,0,0,1,-1524.15,-2520.42)">
                <path d="M2400.51,3024.23C2368.26,3024.23 2342.76,3016.54 2324.01,3001.16C2305.26,2985.79 2295.89,2962.6 2295.89,2931.6C2295.89,2910.6 2300.26,2893.23 2309.01,2879.48C2317.76,2865.73 2330.01,2855.54 2345.76,2848.91C2361.51,2842.29 2379.89,2838.98 2400.89,2838.98C2414.14,2838.98 2426.01,2839.91 2436.51,2841.79C2447.01,2843.66 2457.01,2846.85 2466.51,2851.35L2466.51,2900.85C2451.76,2893.85 2435.01,2890.35 2416.26,2890.35C2400.26,2890.35 2388.2,2893.35 2380.07,2899.35C2371.95,2905.35 2367.89,2916.1 2367.89,2931.6C2367.89,2946.1 2371.76,2956.6 2379.51,2963.1C2387.26,2969.6 2399.51,2972.85 2416.26,2972.85C2425.26,2972.85 2434.01,2971.79 2442.51,2969.66C2451.01,2967.54 2459.14,2964.48 2466.89,2960.48L2466.89,3012.23C2457.39,3016.48 2447.2,3019.54 2436.32,3021.41C2425.45,3023.29 2413.51,3024.23 2400.51,3024.23Z" style="fill:white;fill-rule:nonzero;"/>
                <path d="M2580.14,3024.23C2544.64,3024.23 2518.45,3016.35 2501.57,3000.6C2484.7,2984.85 2476.26,2961.85 2476.26,2931.6C2476.26,2901.6 2484.76,2878.66 2501.76,2862.79C2518.76,2846.91 2544.89,2838.98 2580.14,2838.98C2615.64,2838.98 2641.95,2846.91 2659.07,2862.79C2676.2,2878.66 2684.76,2901.6 2684.76,2931.6C2684.76,2961.85 2676.26,2984.85 2659.26,3000.6C2642.26,3016.35 2615.89,3024.23 2580.14,3024.23ZM2580.14,2972.85C2591.64,2972.85 2599.95,2969.6 2605.07,2963.1C2610.2,2956.6 2612.76,2946.1 2612.76,2931.6C2612.76,2917.35 2610.2,2906.91 2605.07,2900.29C2599.95,2893.66 2591.64,2890.35 2580.14,2890.35C2568.89,2890.35 2560.76,2893.66 2555.76,2900.29C2550.76,2906.91 2548.26,2917.35 2548.26,2931.6C2548.26,2946.1 2550.76,2956.6 2555.76,2963.1C2560.76,2969.6 2568.89,2972.85 2580.14,2972.85Z" style="fill:white;fill-rule:nonzero;"/>
                <path d="M2701.64,3020.48L2701.64,2842.73L2767.64,2842.73L2769.51,2856.23C2776.26,2851.73 2785.2,2847.73 2796.32,2844.23C2807.45,2840.73 2819.39,2838.98 2832.14,2838.98C2854.39,2838.98 2870.64,2844.48 2880.89,2855.48C2891.14,2866.48 2896.26,2883.48 2896.26,2906.48L2896.26,3020.48L2825.76,3020.48L2825.76,2913.6C2825.76,2905.6 2824.01,2899.85 2820.51,2896.35C2817.01,2892.85 2810.89,2891.1 2802.14,2891.1C2796.89,2891.1 2791.45,2892.35 2785.82,2894.85C2780.2,2897.35 2775.64,2900.35 2772.14,2903.85L2772.14,3020.48L2701.64,3020.48Z" style="fill:white;fill-rule:nonzero;"/>
                <path d="M2972.01,3020.48L2901.89,2842.73L2975.39,2842.73L3009.14,2946.98L3042.89,2842.73L3116.39,2842.73L3046.26,3020.48L2972.01,3020.48Z" style="fill:white;fill-rule:nonzero;"/>
                <path d="M3210.51,3024.23C3189.76,3024.23 3171.45,3020.79 3155.57,3013.91C3139.7,3007.04 3127.32,2996.73 3118.45,2982.98C3109.57,2969.23 3105.14,2952.23 3105.14,2931.98C3105.14,2903.73 3113.14,2881.16 3129.14,2864.29C3145.14,2847.41 3169.01,2838.98 3200.76,2838.98C3229.76,2838.98 3252.45,2846.35 3268.82,2861.1C3285.2,2875.85 3293.39,2895.98 3293.39,2921.48L3293.39,2952.6L3170.01,2952.6C3173.26,2962.1 3179.64,2968.85 3189.14,2972.85C3198.64,2976.85 3211.51,2978.85 3227.76,2978.85C3238.01,2978.85 3248.32,2977.91 3258.7,2976.04C3269.07,2974.16 3277.39,2971.98 3283.64,2969.48L3283.64,3011.85C3266.14,3020.1 3241.76,3024.23 3210.51,3024.23ZM3170.01,2914.35L3232.64,2914.35L3232.64,2907.98C3232.64,2900.98 3230.45,2895.23 3226.07,2890.73C3221.7,2886.23 3214.01,2883.98 3203.01,2883.98C3190.76,2883.98 3182.2,2886.54 3177.32,2891.66C3172.45,2896.79 3170.01,2904.35 3170.01,2914.35Z" style="fill:white;fill-rule:nonzero;"/>
                <g transform="matrix(1,0,0,1,1304.75,1395.07)">
                    <path d="M2057.65,1447.66L2081.91,1479.45L2086.13,1485.16L2086.2,1485.07L2193.28,1625.41L2116.13,1625.41L2086.13,1585.66L2056.13,1625.41L1979.26,1625.41L2047.88,1535.03L1981.88,1447.66L2057.65,1447.66ZM2136.24,1519.74L2097.89,1469.48L2114.26,1447.66L2190.38,1447.66L2136.24,1519.74Z" style="fill:white;fill-rule:nonzero;"/>
                </g>
            </g>
        </g>
    </g>
</svg>
