<svg width="28" height="28" viewBox="0 0 28 28" fill="none" xmlns="http://www.w3.org/2000/svg">
<path d="M17.5289 21.5611C21.5124 21.1293 25.2678 19.0577 27.3356 15.6C26.3564 24.1521 16.7747 29.5576 8.95371 26.2388C8.23303 25.9338 7.6127 25.4265 7.18698 24.7742C5.42938 22.0805 4.85162 18.653 5.68177 15.5426C8.05362 19.5378 12.8764 21.9869 17.5289 21.5611Z" fill="white"/>
<path d="M5.53612 13.0332C3.92143 16.6751 3.85149 20.939 5.83108 24.4481C-1.13548 19.3325 -1.05946 8.38566 5.74593 3.32142C6.37539 2.85335 7.12343 2.57553 7.90797 2.53325C11.1343 2.36716 14.4123 3.58415 16.7112 5.85203C12.0405 5.89733 7.49137 8.81749 5.53612 13.0332Z" fill="white"/>
<path d="M18.9644 6.97259C16.6077 3.76555 12.9192 1.58222 8.87793 1.51578C16.6898 -1.94493 26.2989 3.66589 27.3449 11.9613C27.4422 12.7314 27.3145 13.5165 26.9648 14.2111C25.5052 17.1041 22.7989 19.3478 19.6364 20.1783C21.9535 15.9837 21.6677 10.8591 18.9644 6.97259Z" fill="white"/>
</svg>
