<svg xmlns="http://www.w3.org/2000/svg" viewBox="0 0 137.43 192"><defs><style>.cls-1{fill:#fff;}</style></defs><g id="Layer_2" data-name="Layer 2"><g id="Layer_1-2" data-name="Layer 1"><path class="cls-1" d="M95,96h19.2a2.78,2.78,0,0,0,2.61-3.87l-33-90.3A2.78,2.78,0,0,0,81.2,0H61.93a2.79,2.79,0,0,0-2.79,2.78,2.91,2.91,0,0,0,.17,1l33,90.42A2.79,2.79,0,0,0,95,96Z"/><path class="cls-1" d="M91.56,192h19.2a2.79,2.79,0,0,0,2.79-2.78,3,3,0,0,0-.17-1L45.25,1.84A2.77,2.77,0,0,0,42.64,0H23.46a2.77,2.77,0,0,0-2.78,2.78,2.48,2.48,0,0,0,.17,1L89,190.18A2.77,2.77,0,0,0,91.56,192Z"/><path class="cls-1" d="M53.76,192H73a2.79,2.79,0,0,0,2.73-3.76L42.55,97.83A2.78,2.78,0,0,0,39.93,96H20.64a2.78,2.78,0,0,0-2.7,2.85,2.84,2.84,0,0,0,.18.92l33,90.42A2.77,2.77,0,0,0,53.76,192Z"/><path class="cls-1" d="M97.34,3.78l15.49,42.29a2.76,2.76,0,0,0,2.61,1.84h19.2a2.78,2.78,0,0,0,2.79-2.77,2.93,2.93,0,0,0-.17-1L121.77,1.84A2.77,2.77,0,0,0,119.16,0H100a2.79,2.79,0,0,0-2.8,2.77A3,3,0,0,0,97.34,3.78Z"/><path class="cls-1" d="M18.35,192h19.2a2.78,2.78,0,0,0,2.78-2.78,2.56,2.56,0,0,0-.17-1L24.59,145.83A2.8,2.8,0,0,0,22,144H2.8A2.78,2.78,0,0,0,0,146.76a2.91,2.91,0,0,0,.18,1l15.48,42.41A2.8,2.8,0,0,0,18.35,192Z"/></g></g></svg>