<svg width="21" height="20" viewBox="0 0 21 20" fill="none" xmlns="http://www.w3.org/2000/svg">
<path fill-rule="evenodd" clip-rule="evenodd" d="M7.79806 6.00816L8.58453 2.98558L9.371 6.00816C9.59918 6.88507 10.284 7.56988 11.1609 7.79806L14.1835 8.58453L11.1609 9.371C10.284 9.59918 9.59918 10.284 9.371 11.1609L8.58453 14.1835L7.79806 11.1609C7.56988 10.284 6.88507 9.59918 6.00816 9.371L2.98558 8.58453L6.00816 7.79806C6.88507 7.56988 7.56988 6.88507 7.79806 6.00816ZM7.61676 0.748184C7.87633 -0.249396 9.29273 -0.249394 9.55231 0.748186L10.8227 5.63043C10.9139 5.9812 11.1879 6.25512 11.5386 6.34639L16.4209 7.61676C17.4185 7.87633 17.4185 9.29273 16.4209 9.55231L11.5386 10.8227C11.1879 10.9139 10.9139 11.1879 10.8227 11.5386L9.5523 16.4209C9.29273 17.4185 7.87632 17.4185 7.61675 16.4209L6.34639 11.5386C6.25512 11.1879 5.9812 10.9139 5.63043 10.8227L0.748184 9.5523C-0.249396 9.29273 -0.249394 7.87632 0.748186 7.61675L5.63043 6.34639C5.9812 6.25512 6.25512 5.9812 6.34639 5.63043L7.61676 0.748184ZM15.1811 15.1724L15.6547 15.0492C16.0055 14.9579 16.2794 14.684 16.3707 14.3332L16.494 13.8596C16.7535 12.862 18.1699 12.862 18.4295 13.8596L18.5527 14.3332C18.644 14.684 18.9179 14.9579 19.2687 15.0492L19.7424 15.1724C20.74 15.432 20.74 16.8484 19.7424 17.108L19.2687 17.2312C18.9179 17.3225 18.644 17.5964 18.5527 17.9472L18.4295 18.4209C18.1699 19.4185 16.7535 19.4185 16.494 18.4209L16.3707 17.9472C16.2794 17.5964 16.0055 17.3225 15.6547 17.2312L15.1811 17.108C14.1835 16.8484 14.1835 15.432 15.1811 15.1724ZM17.4617 14.1114L17.585 14.5851C17.7675 15.2866 18.3154 15.8344 19.0169 16.017L19.4906 16.1402L19.0169 16.2635C18.3154 16.446 17.7675 16.9939 17.585 17.6954L17.4617 18.1691L17.3385 17.6954C17.1559 16.9939 16.6081 16.446 15.9066 16.2635L15.4329 16.1402L15.9066 16.017C16.6081 15.8344 17.1559 15.2866 17.3385 14.5851L17.4617 14.1114Z" fill="currentColor"/>
</svg>
