<svg width="742" height="558" viewBox="0 0 742 558" fill="none" stroke="currentColor" xmlns="http://www.w3.org/2000/svg">
    <g clip-path="url(#clip0_7430_923)">
    <path d="M741.365 15.0591H0.635254" stroke="currentColor" stroke-miterlimit="10" stroke-linecap="square"/>
    <path d="M741.365 31.0452H0.635254" stroke="currentColor" stroke-miterlimit="10" stroke-linecap="square"/>
    <path d="M741.365 47.0438H0.635254" stroke="currentColor" stroke-miterlimit="10" stroke-linecap="square"/>
    <path d="M741.365 63.0298H0.635254" stroke="currentColor" stroke-miterlimit="10" stroke-linecap="square"/>
    <path d="M741.365 79.0286H0.635254" stroke="currentColor" stroke-miterlimit="10" stroke-linecap="square"/>
    <path d="M741.365 95.0146H0.635254" stroke="currentColor" stroke-miterlimit="10" stroke-linecap="square"/>
    <path d="M741.365 111.013H0.635254" stroke="currentColor" stroke-miterlimit="10" stroke-linecap="square"/>
    <path d="M741.365 126.999H0.635254" stroke="currentColor" stroke-miterlimit="10" stroke-linecap="square"/>
    <path d="M741.365 142.998H0.635254" stroke="currentColor" stroke-miterlimit="10" stroke-linecap="square"/>
    <path d="M741.365 158.984H0.635254" stroke="currentColor" stroke-miterlimit="10" stroke-linecap="square"/>
    <path d="M741.365 174.983H0.635254" stroke="currentColor" stroke-miterlimit="10" stroke-linecap="square"/>
    <path d="M741.365 190.982H0.635254" stroke="currentColor" stroke-miterlimit="10" stroke-linecap="square"/>
    <path d="M741.365 206.968H0.635254" stroke="currentColor" stroke-miterlimit="10" stroke-linecap="square"/>
    <path d="M741.365 222.966H0.635254" stroke="currentColor" stroke-miterlimit="10" stroke-linecap="square"/>
    <path d="M741.365 238.952H0.635254" stroke="currentColor" stroke-miterlimit="10" stroke-linecap="square"/>
    <path d="M741.365 254.951H0.635254" stroke="currentColor" stroke-miterlimit="10" stroke-linecap="square"/>
    <path d="M741.365 270.937H0.635254" stroke="currentColor" stroke-miterlimit="10" stroke-linecap="square"/>
    <path d="M741.365 286.936H0.635254" stroke="currentColor" stroke-miterlimit="10" stroke-linecap="square"/>
    <path d="M741.365 302.922H0.635254" stroke="currentColor" stroke-miterlimit="10" stroke-linecap="square"/>
    <path d="M741.365 318.921H0.635254" stroke="currentColor" stroke-miterlimit="10" stroke-linecap="square"/>
    <path d="M741.365 334.919H0.635254" stroke="currentColor" stroke-miterlimit="10" stroke-linecap="square"/>
    <path d="M741.365 350.905H0.635254" stroke="currentColor" stroke-miterlimit="10" stroke-linecap="square"/>
    <path d="M741.365 366.904H0.635254" stroke="currentColor" stroke-miterlimit="10" stroke-linecap="square"/>
    <path d="M741.365 382.89H0.635254" stroke="currentColor" stroke-miterlimit="10" stroke-linecap="square"/>
    <path d="M741.365 398.889H0.635254" stroke="currentColor" stroke-miterlimit="10" stroke-linecap="square"/>
    <path d="M741.365 414.875H0.635254" stroke="currentColor" stroke-miterlimit="10" stroke-linecap="square"/>
    <path d="M741.365 430.874H0.635254" stroke="currentColor" stroke-miterlimit="10" stroke-linecap="square"/>
    <path d="M741.365 446.86H0.635254" stroke="currentColor" stroke-miterlimit="10" stroke-linecap="square"/>
    <path d="M741.365 462.858H0.635254" stroke="currentColor" stroke-miterlimit="10" stroke-linecap="square"/>
    <path d="M741.365 478.857H0.635254" stroke="currentColor" stroke-miterlimit="10" stroke-linecap="square"/>
    <path d="M741.365 494.843H0.635254" stroke="currentColor" stroke-miterlimit="10" stroke-linecap="square"/>
    <path d="M741.365 510.842H0.635254" stroke="currentColor" stroke-miterlimit="10" stroke-linecap="square"/>
    <path d="M741.365 526.828H0.635254" stroke="currentColor" stroke-miterlimit="10" stroke-linecap="square"/>
    <path d="M741.365 542.827H0.635254" stroke="currentColor" stroke-miterlimit="10" stroke-linecap="square"/>
    <path d="M726.779 557.365V0.634888" stroke="currentColor" stroke-miterlimit="10" stroke-linecap="square"/>
    <path d="M710.236 557.365V0.634888" stroke="currentColor" stroke-miterlimit="10" stroke-linecap="square"/>
    <path d="M693.693 557.365V0.634888" stroke="currentColor" stroke-miterlimit="10" stroke-linecap="square"/>
    <path d="M677.151 557.365V0.634888" stroke="currentColor" stroke-miterlimit="10" stroke-linecap="square"/>
    <path d="M660.596 557.365V0.634888" stroke="currentColor" stroke-miterlimit="10" stroke-linecap="square"/>
    <path d="M644.054 557.365V0.634888" stroke="currentColor" stroke-miterlimit="10" stroke-linecap="square"/>
    <path d="M627.511 557.365V0.634888" stroke="currentColor" stroke-miterlimit="10" stroke-linecap="square"/>
    <path d="M610.956 557.365V0.634888" stroke="currentColor" stroke-miterlimit="10" stroke-linecap="square"/>
    <path d="M594.413 557.365V0.634888" stroke="currentColor" stroke-miterlimit="10" stroke-linecap="square"/>
    <path d="M577.871 557.365V0.634888" stroke="currentColor" stroke-miterlimit="10" stroke-linecap="square"/>
    <path d="M561.328 557.365V0.634888" stroke="currentColor" stroke-miterlimit="10" stroke-linecap="square"/>
    <path d="M544.772 557.365V0.634888" stroke="currentColor" stroke-miterlimit="10" stroke-linecap="square"/>
    <path d="M528.23 557.365V0.634888" stroke="currentColor" stroke-miterlimit="10" stroke-linecap="square"/>
    <path d="M511.688 557.365V0.634888" stroke="currentColor" stroke-miterlimit="10" stroke-linecap="square"/>
    <path d="M495.146 557.365V0.634888" stroke="currentColor" stroke-miterlimit="10" stroke-linecap="square"/>
    <path d="M478.59 557.365V0.634888" stroke="currentColor" stroke-miterlimit="10" stroke-linecap="square"/>
    <path d="M462.048 557.365V0.634888" stroke="currentColor" stroke-miterlimit="10" stroke-linecap="square"/>
    <path d="M445.505 557.365V0.634888" stroke="currentColor" stroke-miterlimit="10" stroke-linecap="square"/>
    <path d="M428.949 557.365V0.634888" stroke="currentColor" stroke-miterlimit="10" stroke-linecap="square"/>
    <path d="M412.407 557.365V0.634888" stroke="currentColor" stroke-miterlimit="10" stroke-linecap="square"/>
    <path d="M395.864 557.365V0.634888" stroke="currentColor" stroke-miterlimit="10" stroke-linecap="square"/>
    <path d="M379.322 557.365V0.634888" stroke="currentColor" stroke-miterlimit="10" stroke-linecap="square"/>
    <path d="M362.767 557.365V0.634888" stroke="currentColor" stroke-miterlimit="10" stroke-linecap="square"/>
    <path d="M346.224 557.365V0.634888" stroke="currentColor" stroke-miterlimit="10" stroke-linecap="square"/>
    <path d="M329.682 557.365V0.634888" stroke="currentColor" stroke-miterlimit="10" stroke-linecap="square"/>
    <path d="M313.139 557.365V0.634888" stroke="currentColor" stroke-miterlimit="10" stroke-linecap="square"/>
    <path d="M296.584 557.365V0.634888" stroke="currentColor" stroke-miterlimit="10" stroke-linecap="square"/>
    <path d="M280.042 557.365V0.634888" stroke="currentColor" stroke-miterlimit="10" stroke-linecap="square"/>
    <path d="M263.499 557.365V0.634888" stroke="currentColor" stroke-miterlimit="10" stroke-linecap="square"/>
    <path d="M246.944 557.365V0.634888" stroke="currentColor" stroke-miterlimit="10" stroke-linecap="square"/>
    <path d="M230.401 557.365V0.634888" stroke="currentColor" stroke-miterlimit="10" stroke-linecap="square"/>
    <path d="M213.858 557.365V0.634888" stroke="currentColor" stroke-miterlimit="10" stroke-linecap="square"/>
    <path d="M197.316 557.365V0.634888" stroke="currentColor" stroke-miterlimit="10" stroke-linecap="square"/>
    <path d="M180.761 557.365V0.634888" stroke="currentColor" stroke-miterlimit="10" stroke-linecap="square"/>
    <path d="M164.218 557.365V0.634888" stroke="currentColor" stroke-miterlimit="10" stroke-linecap="square"/>
    <path d="M147.676 557.365V0.634888" stroke="currentColor" stroke-miterlimit="10" stroke-linecap="square"/>
    <path d="M131.121 557.365L131.133 0.634888" stroke="currentColor" stroke-miterlimit="10" stroke-linecap="square"/>
    <path d="M114.578 557.365V0.634888" stroke="currentColor" stroke-miterlimit="10" stroke-linecap="square"/>
    <path d="M98.0356 557.365V0.634888" stroke="currentColor" stroke-miterlimit="10" stroke-linecap="square"/>
    <path d="M81.4927 557.365V0.634888" stroke="currentColor" stroke-miterlimit="10" stroke-linecap="square"/>
    <path d="M64.9375 557.365V0.634888" stroke="currentColor" stroke-miterlimit="10" stroke-linecap="square"/>
    <path d="M48.395 557.365V0.634888" stroke="currentColor" stroke-miterlimit="10" stroke-linecap="square"/>
    <path d="M31.8525 557.365V0.634888" stroke="currentColor" stroke-miterlimit="10" stroke-linecap="square"/>
    <path d="M15.3101 557.365V0.634888" stroke="currentColor" stroke-miterlimit="10" stroke-linecap="square"/>
    </g>
    <defs>
    <clipPath id="clip0_7430_923">
    <rect width="742" height="558" fill="white"/>
    </clipPath>
    </defs>
    </svg>
    