<svg width="145" height="267" viewBox="0 0 145 267" fill="none" xmlns="http://www.w3.org/2000/svg">
    <rect y="237" width="40" height="40" transform="rotate(-90 0 237)" fill="url(#paint0_linear_6648_254179)"/>
    <path d="M128 181V167.469H126.778L126.471 164.211H128V154.589L125.565 154.589L125.258 151.331H128V141.705H124.351L124.044 138.448H128L128 128.822H123.137L122.83 125.564H128L128 115.942H121.924L121.617 112.684H128L128 103.058H120.71L120.403 99.8004L128 99.8005V90.1743H119.496L119.189 86.9167L128 86.9167V77.2945H118.282L117.975 74.037L128 74.037V64.4108H117.068L116.762 61.1532L128 61.1532V51.527L115.855 51.527L115.548 48.2694L128 48.2694V38.6473H114.641L114.334 35.3897L128 35.3897V25.7635H113.427L113.12 22.5059H128V12.8797H112.213L111.907 9.62215H128V3.05176e-05H111.261L111 0V13.5312H112.222L112.529 16.7888H111V26.4109H113.436L113.743 29.6685H111V39.2947H114.65L114.957 42.5523H111V52.1744H115.863L116.17 55.432H111V65.0582H117.077L117.384 68.3158H111V77.942H118.29L118.597 81.1996L111 81.1996V90.8217H119.504L119.811 94.0793H111V103.705H120.718L121.025 106.963H111V116.589L121.932 116.589L122.239 119.847H111V129.469L123.146 129.469L123.452 132.727L111 132.727V142.353L124.359 142.353L124.666 145.61L111 145.61V155.237L125.573 155.237L125.88 158.494L111 158.494V168.116L126.787 168.116L127.093 171.374L111 171.374V181L127.739 181L128 181Z" fill="url(#paint1_linear_6648_254179)"/>
    <path d="M128 0V13.5312H129.222L129.529 16.7888H128V26.4109L130.435 26.4109L130.742 29.6685H128V39.2947H131.649L131.956 42.5523H128L128 52.1785H132.863L133.17 55.4361H128L128 65.0582H134.076L134.383 68.3158H128L128 77.942H135.29L135.597 81.1996L128 81.1995V90.8257H136.504L136.811 94.0833L128 94.0833V103.705H137.718L138.025 106.963L128 106.963V116.589H138.932L139.238 119.847L128 119.847V129.473L140.145 129.473L140.452 132.731L128 132.731V142.353H141.359L141.666 145.61L128 145.61V155.236H142.573L142.88 158.494H128V168.12H143.787L144.093 171.378H128V181H144.739L145 181V167.469H143.778L143.471 164.211H145V154.589H142.564L142.257 151.331H145V141.705H141.35L141.043 138.448H145V128.826H140.137L139.83 125.568H145V115.942H138.923L138.616 112.684H145V103.058H137.71L137.403 99.8004L145 99.8004V90.1783H136.496L136.189 86.9207H145V77.2945H135.282L134.975 74.0369H145V64.4108L134.068 64.4107L133.761 61.1531H145V51.531L132.854 51.531L132.548 48.2734L145 48.2735V38.6473L131.641 38.6473L131.334 35.3897L145 35.3897V25.7635L130.427 25.7635L130.12 22.5059L145 22.5059V12.8838L129.213 12.8838L128.907 9.62619L145 9.62619V9.33054e-06L128.261 4.4352e-06L128 0Z" fill="url(#paint2_linear_6648_254179)"/>
    <rect x="11" y="267" width="58" height="61" transform="rotate(-90 11 267)" fill="url(#paint3_linear_6648_254179)"/>
    <defs>
    <linearGradient id="paint0_linear_6648_254179" x1="34.8993" y1="243.216" x2="-31.7274" y2="257.967" gradientUnits="userSpaceOnUse">
    <stop stop-color="#F3B01C"/>
    <stop offset="1" stop-color="#EFE1C2"/>
    </linearGradient>
    <linearGradient id="paint1_linear_6648_254179" x1="128" y1="181" x2="51.4548" y2="145.105" gradientUnits="userSpaceOnUse">
    <stop stop-color="#EE342F"/>
    <stop offset="1" stop-color="#EE342F" stop-opacity="0.15"/>
    </linearGradient>
    <linearGradient id="paint2_linear_6648_254179" x1="128" y1="0" x2="204.545" y2="35.8949" gradientUnits="userSpaceOnUse">
    <stop stop-color="#8D2676"/>
    <stop offset="1" stop-color="#EE342F" stop-opacity="0.15"/>
    </linearGradient>
    <linearGradient id="paint3_linear_6648_254179" x1="61.604" y1="276.48" x2="-35.4398" y2="296.908" gradientUnits="userSpaceOnUse">
    <stop stop-color="#8D2676"/>
    <stop offset="1" stop-color="#EFE1C2"/>
    </linearGradient>
    </defs>
    </svg>
    