<svg width="81" height="86" viewBox="0 0 81 86" fill="none" xmlns="http://www.w3.org/2000/svg">
    <g clip-path="url(#clip0_7430_671)">
    <path fill-rule="evenodd" clip-rule="evenodd" d="M36.0717 4.46766C36.0717 6.93508 34.0898 8.93532 31.6451 8.93532C29.2003 8.93532 27.2184 6.93508 27.2184 4.46766C27.2184 2.00024 29.2003 0 31.6451 0C34.0898 0 36.0717 2.00024 36.0717 4.46766ZM17.7066 4.7985C17.7066 7.26592 15.7247 9.26616 13.2799 9.26616C10.8351 9.26616 8.85327 7.26592 8.85327 4.7985C8.85327 2.33107 10.8351 0.330834 13.2799 0.330834C15.7247 0.330834 17.7066 2.33107 17.7066 4.7985ZM8.85328 14.3853C8.85328 16.8527 6.87141 18.8529 4.42664 18.8529C1.98187 18.8529 0 16.8527 0 14.3853C0 11.9178 1.98187 9.91759 4.42664 9.91759C6.87141 9.91759 8.85328 11.9178 8.85328 14.3853ZM22.1365 18.8529C24.5813 18.8529 26.5632 16.8527 26.5632 14.3853C26.5632 11.9178 24.5813 9.91759 22.1365 9.91759C19.6918 9.91759 17.7099 11.9178 17.7099 14.3853C17.7099 16.8527 19.6918 18.8529 22.1365 18.8529ZM17.7066 23.9819C17.7066 26.4493 15.7247 28.4496 13.2799 28.4496C10.8351 28.4496 8.85327 26.4493 8.85327 23.9819C8.85327 21.5145 10.8351 19.5143 13.2799 19.5143C15.7247 19.5143 17.7066 21.5145 17.7066 23.9819ZM4.42664 38.0363C6.87141 38.0363 8.85328 36.0361 8.85328 33.5687C8.85328 31.1013 6.87141 29.101 4.42664 29.101C1.98187 29.101 0 31.1013 0 33.5687C0 36.0361 1.98187 38.0363 4.42664 38.0363ZM26.5632 33.5687C26.5632 36.0361 24.5813 38.0363 22.1365 38.0363C19.6918 38.0363 17.7099 36.0361 17.7099 33.5687C17.7099 31.1013 19.6918 29.101 22.1365 29.101C24.5813 29.101 26.5632 31.1013 26.5632 33.5687ZM13.2799 47.633C15.7247 47.633 17.7066 45.6328 17.7066 43.1654C17.7066 40.6979 15.7247 38.6977 13.2799 38.6977C10.8351 38.6977 8.85327 40.6979 8.85327 43.1654C8.85327 45.6328 10.8351 47.633 13.2799 47.633ZM8.85328 52.7523C8.85328 55.2197 6.87141 57.2199 4.42664 57.2199C1.98187 57.2199 0 55.2197 0 52.7523C0 50.2848 1.98187 48.2846 4.42664 48.2846C6.87141 48.2846 8.85328 50.2848 8.85328 52.7523ZM22.1365 57.2199C24.5813 57.2199 26.5632 55.2197 26.5632 52.7523C26.5632 50.2848 24.5813 48.2846 22.1365 48.2846C19.6918 48.2846 17.7099 50.2848 17.7099 52.7523C17.7099 55.2197 19.6918 57.2199 22.1365 57.2199ZM17.7066 62.3489C17.7066 64.8164 15.7247 66.8166 13.2799 66.8166C10.8351 66.8166 8.85327 64.8164 8.85327 62.3489C8.85327 59.8815 10.8351 57.8813 13.2799 57.8813C15.7247 57.8813 17.7066 59.8815 17.7066 62.3489ZM4.42664 76.4034C6.87141 76.4034 8.85328 74.4031 8.85328 71.9357C8.85328 69.4683 6.87141 67.468 4.42664 67.468C1.98187 67.468 0 69.4683 0 71.9357C0 74.4031 1.98187 76.4034 4.42664 76.4034ZM26.5632 71.9357C26.5632 74.4031 24.5813 76.4034 22.1365 76.4034C19.6918 76.4034 17.7099 74.4031 17.7099 71.9357C17.7099 69.4683 19.6918 67.468 22.1365 67.468C24.5813 67.468 26.5632 69.4683 26.5632 71.9357ZM67.7201 9.26616C70.1649 9.26616 72.1468 7.26592 72.1468 4.7985C72.1468 2.33107 70.1649 0.330834 67.7201 0.330834C65.2753 0.330834 63.2935 2.33107 63.2935 4.7985C63.2935 7.26592 65.2753 9.26616 67.7201 9.26616ZM63.2901 14.3853C63.2901 16.8527 61.3083 18.8529 58.8635 18.8529C56.4187 18.8529 54.4368 16.8527 54.4368 14.3853C54.4368 11.9178 56.4187 9.91759 58.8635 9.91759C61.3083 9.91759 63.2901 11.9178 63.2901 14.3853ZM76.5734 18.8529C79.0181 18.8529 81 16.8527 81 14.3853C81 11.9178 79.0181 9.91759 76.5734 9.91759C74.1286 9.91759 72.1467 11.9178 72.1467 14.3853C72.1467 16.8527 74.1286 18.8529 76.5734 18.8529ZM72.1468 23.9819C72.1468 26.4493 70.1649 28.4496 67.7201 28.4496C65.2753 28.4496 63.2935 26.4493 63.2935 23.9819C63.2935 21.5145 65.2753 19.5143 67.7201 19.5143C70.1649 19.5143 72.1468 21.5145 72.1468 23.9819ZM58.8635 38.0363C61.3083 38.0363 63.2901 36.0361 63.2901 33.5687C63.2901 31.1013 61.3083 29.101 58.8635 29.101C56.4187 29.101 54.4368 31.1013 54.4368 33.5687C54.4368 36.0361 56.4187 38.0363 58.8635 38.0363ZM81 33.5687C81 36.0361 79.0181 38.0363 76.5734 38.0363C74.1286 38.0363 72.1467 36.0361 72.1467 33.5687C72.1467 31.1013 74.1286 29.101 76.5734 29.101C79.0181 29.101 81 31.1013 81 33.5687ZM67.7201 47.633C70.1649 47.633 72.1468 45.6328 72.1468 43.1654C72.1468 40.6979 70.1649 38.6977 67.7201 38.6977C65.2753 38.6977 63.2935 40.6979 63.2935 43.1654C63.2935 45.6328 65.2753 47.633 67.7201 47.633ZM63.2901 52.7523C63.2901 55.2197 61.3083 57.2199 58.8635 57.2199C56.4187 57.2199 54.4368 55.2197 54.4368 52.7523C54.4368 50.2848 56.4187 48.2846 58.8635 48.2846C61.3083 48.2846 63.2901 50.2848 63.2901 52.7523ZM76.5734 57.2199C79.0181 57.2199 81 55.2197 81 52.7523C81 50.2848 79.0181 48.2846 76.5734 48.2846C74.1286 48.2846 72.1467 50.2848 72.1467 52.7523C72.1467 55.2197 74.1286 57.2199 76.5734 57.2199ZM72.1468 62.3489C72.1468 64.8164 70.1649 66.8166 67.7201 66.8166C65.2753 66.8166 63.2935 64.8164 63.2935 62.3489C63.2935 59.8815 65.2753 57.8813 67.7201 57.8813C70.1649 57.8813 72.1468 59.8815 72.1468 62.3489ZM58.8635 76.4034C61.3083 76.4034 63.2901 74.4031 63.2901 71.9357C63.2901 69.4683 61.3083 67.468 58.8635 67.468C56.4187 67.468 54.4368 69.4683 54.4368 71.9357C54.4368 74.4031 56.4187 76.4034 58.8635 76.4034ZM81 71.9357C81 74.4031 79.0181 76.4034 76.5734 76.4034C74.1286 76.4034 72.1467 74.4031 72.1467 71.9357C72.1467 69.4683 74.1286 67.468 76.5734 67.468C79.0181 67.468 81 69.4683 81 71.9357ZM40.5017 76.4034C42.9464 76.4034 44.9283 74.4031 44.9283 71.9357C44.9283 69.4683 42.9464 67.468 40.5017 67.468C38.0569 67.468 36.075 69.4683 36.075 71.9357C36.075 74.4031 38.0569 76.4034 40.5017 76.4034ZM49.3549 8.93532C51.7997 8.93532 53.7816 6.93508 53.7816 4.46766C53.7816 2.00024 51.7997 0 49.3549 0C46.9102 0 44.9283 2.00024 44.9283 4.46766C44.9283 6.93508 46.9102 8.93532 49.3549 8.93532ZM17.7066 81.5324C17.7066 83.9998 15.7247 86 13.2799 86C10.8351 86 8.85327 83.9998 8.85327 81.5324C8.85327 79.0649 10.8351 77.0647 13.2799 77.0647C15.7247 77.0647 17.7066 79.0649 17.7066 81.5324ZM67.7201 86C70.1649 86 72.1468 83.9998 72.1468 81.5324C72.1468 79.0649 70.1649 77.0647 67.7201 77.0647C65.2753 77.0647 63.2935 79.0649 63.2935 81.5324C63.2935 83.9998 65.2753 86 67.7201 86ZM36.0717 81.2017C36.0717 83.6691 34.0898 85.6693 31.6451 85.6693C29.2003 85.6693 27.2184 83.6691 27.2184 81.2017C27.2184 78.7343 29.2003 76.734 31.6451 76.734C34.0898 76.734 36.0717 78.7343 36.0717 81.2017ZM49.3549 85.6693C51.7997 85.6693 53.7816 83.6691 53.7816 81.2017C53.7816 78.7343 51.7997 76.734 49.3549 76.734C46.9102 76.734 44.9283 78.7343 44.9283 81.2017C44.9283 83.6691 46.9102 85.6693 49.3549 85.6693ZM44.9283 14.0677C44.9283 16.5351 42.9464 18.5353 40.5017 18.5353C38.0569 18.5353 36.075 16.5351 36.075 14.0677C36.075 11.6003 38.0569 9.60003 40.5017 9.60003C42.9464 9.60003 44.9283 11.6003 44.9283 14.0677ZM31.6451 28.1189C34.0898 28.1189 36.0717 26.1187 36.0717 23.6512C36.0717 21.1838 34.0898 19.1836 31.6451 19.1836C29.2003 19.1836 27.2184 21.1838 27.2184 23.6512C27.2184 26.1187 29.2003 28.1189 31.6451 28.1189ZM53.7816 23.6512C53.7816 26.1187 51.7997 28.1189 49.3549 28.1189C46.9102 28.1189 44.9283 26.1187 44.9283 23.6512C44.9283 21.1838 46.9102 19.1836 49.3549 19.1836C51.7997 19.1836 53.7816 21.1838 53.7816 23.6512ZM40.5017 37.7189C42.9464 37.7189 44.9283 35.7187 44.9283 33.2513C44.9283 30.7838 42.9464 28.7836 40.5017 28.7836C38.0569 28.7836 36.075 30.7838 36.075 33.2513C36.075 35.7187 38.0569 37.7189 40.5017 37.7189ZM36.0717 42.8347C36.0717 45.3021 34.0898 47.3023 31.6451 47.3023C29.2003 47.3023 27.2184 45.3021 27.2184 42.8347C27.2184 40.3672 29.2003 38.367 31.6451 38.367C34.0898 38.367 36.0717 40.3672 36.0717 42.8347ZM49.3549 47.3023C51.7997 47.3023 53.7816 45.3021 53.7816 42.8347C53.7816 40.3672 51.7997 38.367 49.3549 38.367C46.9102 38.367 44.9283 40.3672 44.9283 42.8347C44.9283 45.3021 46.9102 47.3023 49.3549 47.3023ZM44.9283 52.4347C44.9283 54.9021 42.9464 56.9024 40.5017 56.9024C38.0569 56.9024 36.075 54.9021 36.075 52.4347C36.075 49.9673 38.0569 47.967 40.5017 47.967C42.9464 47.967 44.9283 49.9673 44.9283 52.4347ZM31.6451 66.4859C34.0898 66.4859 36.0717 64.4857 36.0717 62.0182C36.0717 59.5508 34.0898 57.5506 31.6451 57.5506C29.2003 57.5506 27.2184 59.5508 27.2184 62.0182C27.2184 64.4857 29.2003 66.4859 31.6451 66.4859ZM53.7816 62.0182C53.7816 64.4857 51.7997 66.4859 49.3549 66.4859C46.9102 66.4859 44.9283 64.4857 44.9283 62.0182C44.9283 59.5508 46.9102 57.5506 49.3549 57.5506C51.7997 57.5506 53.7816 59.5508 53.7816 62.0182Z" fill="url(#paint0_linear_7430_671)"/>
    </g>
    <defs>
    <linearGradient id="paint0_linear_7430_671" x1="81" y1="0" x2="-41.0956" y2="0" gradientUnits="userSpaceOnUse">
    <stop stop-color="#EE342F"/>
    <stop offset="0.736226" stop-color="#EE342F" stop-opacity="0"/>
    </linearGradient>
    <clipPath id="clip0_7430_671">
    <rect width="81" height="86" fill="white"/>
    </clipPath>
    </defs>
    </svg>
    