<svg width="178" height="80" viewBox="0 0 178 80" fill="none" xmlns="http://www.w3.org/2000/svg">
    <g clip-path="url(#clip0_7430_717)">
    <path d="M92.4199 21.4321V79.6401H101.872V15.4761L92.4199 21.4321Z" fill="#EE342F"/>
    <path d="M79.7637 29.404V79.64H89.2197V23.448L79.7637 29.404Z" fill="#EE342F"/>
    <path d="M105.072 13.4641V79.6401H114.528V7.50806L105.072 13.4641Z" fill="#EE342F"/>
    <path d="M155.692 -18.42V79.6401H165.148V-24.376L155.692 -18.42Z" fill="#EE342F"/>
    <path d="M117.728 5.49214V79.6402H127.184V-0.463867L117.728 5.49214Z" fill="#EE342F"/>
    <path d="M130.384 -2.47988V79.6401H139.836V-8.43188L130.384 -2.47988Z" fill="#EE342F"/>
    <path d="M143.036 -10.4481V79.64H152.492V-16.4041L143.036 -10.4481Z" fill="#EE342F"/>
    <path d="M67.1084 37.3722V79.6402H76.5644V31.4202L67.1084 37.3722Z" fill="#EE342F"/>
    <path d="M0 79.64H13.292V71.272L0 79.64Z" fill="#EE342F"/>
    <path d="M16.4922 69.2561V79.6401H25.9442V63.3L16.4922 69.2561Z" fill="#EE342F"/>
    <path d="M29.1436 61.2841V79.6401H38.5996V55.3281L29.1436 61.2841Z" fill="#EE342F"/>
    <path d="M54.4561 45.3439V79.64H63.9081V39.3879L54.4561 45.3439Z" fill="#EE342F"/>
    <path d="M41.7998 53.3161V79.6401H51.2558V47.3601L41.7998 53.3161Z" fill="#EE342F"/>
    <path d="M177.252 -32L168.348 -26.392V79.64H177.8V-30.288L177.252 -32Z" fill="#EE342F"/>
    <path d="M85.3837 26.208V-32H75.9277V32.164L85.3837 26.208Z" fill="#EE342F"/>
    <path d="M98.036 18.24V-32H88.584V24.192L98.036 18.24Z" fill="#EE342F"/>
    <path d="M72.7285 34.18V-32H63.2725V40.136L72.7285 34.18Z" fill="#EE342F"/>
    <path d="M22.1083 66.06V-32H12.6562V72.016L22.1083 66.06Z" fill="#EE342F"/>
    <path d="M60.0721 42.152V-32H50.6201V48.104L60.0721 42.152Z" fill="#EE342F"/>
    <path d="M47.4199 50.12V-32H37.9639V56.076L47.4199 50.12Z" fill="#EE342F"/>
    <path d="M34.7636 58.092V-32H25.3076V64.048L34.7636 58.092Z" fill="#EE342F"/>
    <path d="M110.692 10.268V-32H101.236V16.224L110.692 10.268Z" fill="#EE342F"/>
    <path d="M123.348 2.30001V-32H113.892V8.25201L123.348 2.30001Z" fill="#EE342F"/>
    <path d="M136 -5.67199V-32H126.548V0.284012L136 -5.67199Z" fill="#EE342F"/>
    <path d="M0.548 79.64L9.456 74.032V-32H0V77.928L0.548 79.64Z" fill="#EE342F"/>
    </g>
    <defs>
    <clipPath id="clip0_7430_717">
    <rect width="177.8" height="111.64" fill="white" transform="translate(0 -32)"/>
    </clipPath>
    </defs>
    </svg>
    