<svg width="16" height="16" viewBox="0 0 17 16" fill="none" xmlns="http://www.w3.org/2000/svg">
  <path
    d="M13.6362 3.63134C12.9943 2.5 11.9178 1.61145 10.646 1.2111C9.34758 0.807447 7.98334 0.935014 6.80876 1.49062C5.97879 1.44168 5.17562 1.61182 4.42578 2.00432C3.33088 2.5698 2.53518 3.54992 2.17455 4.71882C1.81392 5.88771 1.92809 7.14242 2.49357 8.23732C2.75304 8.75492 3.12864 9.206 3.56723 9.58399L2.80624 12.0247C2.6673 12.4929 2.9505 13.4719 6.50701 14.587C7.39032 14.8583 8.25694 15.0466 8.94751 15.1322C9.63809 15.2178 9.13344 15.1552 9.21312 15.1651C9.87714 15.2474 10.7967 15.2265 10.9852 14.5757L11.7462 12.1349C13.6879 11.9171 15.3496 10.478 15.7359 8.4493C16.1123 6.50027 15.2141 4.609 13.6395 3.60478L13.6362 3.63134ZM9.98884 14.1286C9.63038 14.192 8.4817 14.1036 6.76491 13.5941C5.07797 13.0614 4.0715 12.4782 3.80567 12.2295L3.98763 11.6318C4.56231 11.9997 5.52552 12.4966 6.95344 12.9433C7.91314 13.251 8.70339 13.4029 9.34084 13.4819C9.9783 13.5609 9.92518 13.5543 10.141 13.5541L9.95899 14.1518L9.98884 14.1286ZM10.5183 12.4682C9.98048 12.4555 8.85503 12.3969 7.29761 11.9072C5.74018 11.4175 4.78684 10.8409 4.33838 10.5426L4.43101 10.2304L4.61954 9.57957C5.06494 10.1202 5.68946 10.5212 6.39343 10.7164C6.7554 10.8421 7.1538 10.8915 7.55551 10.9143C7.93087 11.1496 8.31283 11.3318 8.72793 11.4642C8.93712 11.5171 9.17287 11.5733 9.38536 11.5996C9.86345 11.6589 10.3249 11.6351 10.7729 11.5019L10.5909 12.0996L10.4983 12.4118L10.5183 12.4682ZM14.7266 8.3242C14.4327 9.82499 13.1756 10.8288 11.7683 11.0859C12.0967 10.8299 12.352 10.511 12.5309 10.1556C12.6468 9.87332 12.5236 9.5614 12.2414 9.44551C11.9591 9.32961 11.6471 9.45276 11.5312 9.73505C11.3756 10.1203 11.0141 10.4261 10.513 10.5527C10.0948 10.6627 9.63667 10.6599 9.19173 10.5508C8.97924 10.5245 8.77662 10.4184 8.57402 10.3124C8.52089 10.3058 8.44781 10.2428 8.39798 10.2097L8.70241 9.27656C8.79174 8.99098 8.63874 8.70233 8.35316 8.61299C8.06757 8.52366 7.77893 8.67666 7.68959 8.96224L7.41171 9.89868C7.35858 9.89209 7.27892 9.88222 7.22579 9.87563C7.01331 9.8493 6.8041 9.7964 6.62476 9.72023C6.1864 9.55803 5.78776 9.29286 5.50525 8.96119C5.1762 8.56982 5.04294 8.1218 5.11559 7.75325C5.15181 7.46108 4.96896 7.1957 4.68008 7.13292C4.38792 7.09671 4.12253 7.27956 4.05975 7.56844C4.01037 7.96685 4.03739 8.4017 4.20379 8.79988C3.91469 8.52133 3.65544 8.21951 3.45919 7.8446C3.02344 7.0085 2.92618 6.05254 3.20076 5.14267C3.47535 4.2328 4.10532 3.50182 4.94472 3.03951C4.97128 3.0428 5.03099 2.99627 5.06084 2.973C4.98138 3.1789 5.00487 3.42453 5.2009 3.58367C5.42019 3.77266 5.77206 3.76234 5.96105 3.54304C6.29931 3.20741 6.66414 2.87506 7.04235 2.65225C7.59309 2.34295 8.18049 2.17304 8.80784 2.11595C9.32566 2.07226 9.83031 2.13481 10.3484 2.30689C10.8431 2.44912 11.3215 2.72416 11.7135 3.04244C12.2052 3.42701 12.6008 3.9345 12.857 4.47866C13.0499 4.88014 13.1832 5.32815 13.2633 5.76958C13.2868 6.01521 13.4795 6.20091 13.7186 6.23054C13.9576 6.26017 13.7983 6.24042 13.8514 6.247C14.0705 6.22022 14.2529 6.05405 14.3058 5.84485C14.7281 6.57142 14.8916 7.42772 14.7266 8.3242Z"
    fill="black" />
</svg>