<svg width="16" height="16" viewBox="0 0 32 32" fill="none" xmlns="http://www.w3.org/2000/svg">
<path d="M9.48148 4.74072V19.6435C9.48148 21.9305 8.61574 22.5185 7.11111 22.5185C5.53704 22.5185 4.44444 21.537 3.72222 20.2639L0 22.5185C1.0787 24.8009 3.72222 27.2592 7.38889 27.2592C11.4444 27.2592 14.2222 25.1018 14.2222 20.3657V4.74072H9.48148ZM24.2407 4.74072C20.2037 4.74072 17.6157 7.32406 17.6157 10.7176C17.6157 14.3981 19.787 16.1389 23.0509 17.5278L24.1806 18.0139C26.2407 18.9166 27.2593 19.4676 27.2593 21.0185C27.2593 22.3102 26.2778 23.2454 24.4028 23.2454C22.1713 23.2454 21.1157 21.7315 20.1481 20.1481L16.5926 22.5185C17.9213 25.1435 20.3056 27.2592 24.5046 27.2592C28.8009 27.2592 32 25.0278 32 20.9583C32 17.1805 29.8333 15.5 25.9861 13.8518L24.8565 13.3704C22.9167 12.5278 22.0741 11.9815 22.0741 10.625C22.0741 9.52776 22.9167 8.68517 24.2407 8.68517C25.5417 8.68517 26.375 9.23609 27.1481 10.625L30.6713 8.36572C29.1852 5.74072 27.1157 4.74072 24.2407 4.74072Z" fill="black"/>
</svg>
