<?xml version="1.0" encoding="UTF-8"?>
<svg id="_ÎÓÈ_1" data-name="—ÎÓÈ 1" xmlns="http://www.w3.org/2000/svg" viewBox="0 0 15.84 15.53">
  <defs>
    <style>
      .cls-1 {
        fill: #414042;
        stroke: #231f20;
        stroke-miterlimit: 10;
        stroke-width: .5px;
      }
    </style>
  </defs>
  <path class="cls-1" d="m14.9,7.36s-.23-.03-.58-.03c-.78,0-2.29.13-3.65,1.03-1.17.77-1.96,1.9-2.41,2.71-.02-.41,0-.96.07-1.56.1-.73.3-1.52.71-2.24.86-1.52,2.41-2.25,3.06-2.51.04.54.08,1.61-.19,2.72.21-.07.41-.13.61-.18.3-1.55.09-2.92.08-3l-.05-.33-.29.08c-.1.03-2.46.72-3.69,2.88-.23.4-.4.82-.52,1.23-.13-.42-.3-.84-.52-1.23-1.23-2.16-3.59-2.85-3.69-2.88l-.29-.08-.05.33c-.01.08-.22,1.45.08,3,.2.05.4.11.61.18-.27-1.11-.23-2.18-.19-2.72.65.25,2.19.99,3.06,2.51.41.71.61,1.52.71,2.24.08.6.09,1.14.07,1.55-.45-.8-1.24-1.94-2.42-2.71-1.36-.89-2.87-1.03-3.65-1.03-.35,0-.57.03-.58.03l-.37.05.15.39c.04.1.94,2.39,2.88,3.66,1.36.89,2.87,1.03,3.65,1.03.28,0,.48-.02.55-.02.07,0,.27.02.55.02h0c.78,0,2.29-.13,3.65-1.03,1.94-1.27,2.84-3.57,2.88-3.66l.15-.39-.37-.05Zm-7.41,4.5c-.72,0-2.12-.12-3.37-.94-1.31-.86-2.12-2.26-2.46-2.96.03,0,.07,0,.11,0,.72,0,2.12.12,3.37.94,1.31.86,2.12,2.26,2.46,2.96-.03,0-.07,0-.11,0Zm4.48-.94c-1.25.82-2.65.94-3.37.94h0s-.08,0-.11,0c.34-.69,1.15-2.1,2.46-2.96,1.25-.82,2.65-.94,3.37-.94.04,0,.08,0,.11,0-.34.69-1.15,2.1-2.46,2.96Z"/>
  <path class="cls-1" d="m8.04,3.41c.29.41.81,1.26,1.12,2.32.15-.16.3-.31.45-.44-.49-1.49-1.32-2.52-1.37-2.58l-.2-.25-.2.25c-.05.06-.88,1.08-1.37,2.58.15.14.31.29.45.45.31-1.06.83-1.91,1.12-2.32Z"/>
</svg>