<svg width="16" height="15" viewBox="0 0 16 15" fill="none" xmlns="http://www.w3.org/2000/svg">
<path d="M8.0001 8.93925C8.72058 8.93925 9.30465 8.38665 9.30465 7.70498C9.30465 7.02331 8.72058 6.4707 8.0001 6.4707C7.27962 6.4707 6.69556 7.02331 6.69556 7.70498C6.69556 8.38665 7.27962 8.93925 8.0001 8.93925Z" fill="#000000"/>
<path fill-rule="evenodd" clip-rule="evenodd" d="M1.78343 6.96531C1.47227 7.23107 1.34826 7.48158 1.34826 7.70499C1.34826 7.9284 1.47227 8.17891 1.78343 8.44467C2.09455 8.71039 2.56431 8.9648 3.17443 9.18521C4.39229 9.62516 6.09826 9.90419 7.99993 9.90419C9.90161 9.90419 11.6076 9.62516 12.8254 9.18521C13.4356 8.9648 13.9053 8.71039 14.2164 8.44467C14.5276 8.17891 14.6516 7.9284 14.6516 7.70499C14.6516 7.48158 14.5276 7.23107 14.2164 6.96531C13.9053 6.69959 13.4356 6.44518 12.8254 6.22477C11.6076 5.78482 9.90161 5.5058 7.99993 5.5058C6.09826 5.5058 4.39229 5.78482 3.17443 6.22477C2.56431 6.44518 2.09455 6.69959 1.78343 6.96531ZM2.92594 5.60901C4.24159 5.13373 6.03561 4.84668 7.99993 4.84668C9.96425 4.84668 11.7583 5.13373 13.0739 5.60901C13.7306 5.84622 14.2859 6.13671 14.6832 6.47606C15.0805 6.81537 15.3483 7.2301 15.3483 7.70499C15.3483 8.17988 15.0805 8.59461 14.6832 8.93392C14.2859 9.27327 13.7306 9.56376 13.0739 9.80097C11.7583 10.2762 9.96425 10.5633 7.99993 10.5633C6.03561 10.5633 4.24159 10.2762 2.92594 9.80097C2.26931 9.56376 1.71394 9.27327 1.31662 8.93392C0.919344 8.59461 0.651611 8.17988 0.651611 7.70499C0.651611 7.2301 0.919344 6.81537 1.31662 6.47606C1.71394 6.13671 2.26931 5.84622 2.92594 5.60901Z" fill="#000000"/>
<path fill-rule="evenodd" clip-rule="evenodd" d="M5.56879 2.24158C5.16996 2.11951 4.87865 2.14315 4.67416 2.25485C4.46966 2.36656 4.30237 2.59343 4.21469 2.98126C4.12703 3.36905 4.12904 3.88116 4.23235 4.49128C4.43858 5.70914 5.03616 7.24648 5.987 8.80467C6.93784 10.3628 8.04623 11.6212 9.05785 12.3991C9.56466 12.7888 10.0324 13.0465 10.4312 13.1686C10.83 13.2906 11.1213 13.267 11.3258 13.1553C11.5303 13.0436 11.6976 12.8167 11.7853 12.4289C11.873 12.0411 11.871 11.529 11.7676 10.9189C11.5614 9.701 10.9638 8.16365 10.013 6.60547C9.06215 5.04729 7.95376 3.78897 6.94214 3.01107C6.43533 2.62135 5.96758 2.36365 5.56879 2.24158ZM7.38151 2.49958C8.47438 3.33995 9.63414 4.6664 10.6163 6.27591C11.5985 7.88543 12.2327 9.49893 12.4555 10.8146C12.5667 11.4712 12.5785 12.0715 12.4665 12.5667C12.3546 13.0619 12.1088 13.4887 11.6742 13.7261C11.2395 13.9635 10.726 13.9515 10.2168 13.7957C9.70749 13.6398 9.16391 13.33 8.61848 12.9106C7.52561 12.0702 6.36585 10.7437 5.38369 9.13422C4.40153 7.52471 3.76727 5.9112 3.54448 4.59555C3.43329 3.93893 3.4215 3.33863 3.53346 2.8434C3.6454 2.34822 3.89115 1.92148 4.32583 1.68404C4.76051 1.4466 5.274 1.4586 5.78322 1.61447C6.2925 1.77035 6.83608 2.08016 7.38151 2.49958Z" fill="#000000"/>
<path fill-rule="evenodd" clip-rule="evenodd" d="M11.7854 2.98135C11.6977 2.59351 11.5304 2.36664 11.3259 2.25494C11.1214 2.14323 10.8301 2.11959 10.4313 2.24167C10.0325 2.36373 9.56473 2.62143 9.05792 3.01115C8.04629 3.78905 6.9379 5.04737 5.98707 6.60556C5.03623 8.16374 4.43864 9.70108 4.23242 10.9189C4.1291 11.5291 4.12709 12.0412 4.21476 12.429C4.30244 12.8168 4.46973 13.0437 4.67422 13.1554C4.87872 13.2671 5.17002 13.2907 5.56886 13.1686C5.96765 13.0466 6.43539 12.7889 6.9422 12.3992C7.95383 11.6213 9.06222 10.3629 10.0131 8.80475C10.9639 7.24657 11.5615 5.70922 11.7677 4.49137C11.871 3.88125 11.873 3.36914 11.7854 2.98135ZM12.4556 4.59564C12.2328 5.91129 11.5985 7.5248 10.6164 9.13431C9.63421 10.7438 8.47444 12.0703 7.38158 12.9106C6.83614 13.3301 6.29256 13.6399 5.78329 13.7958C5.27406 13.9516 4.76058 13.9636 4.3259 13.7262C3.89122 13.4887 3.64547 13.062 3.53352 12.5668C3.42157 12.0716 3.43336 11.4713 3.54455 10.8147C3.76733 9.49902 4.4016 7.88551 5.38376 6.276C6.36592 4.66648 7.52568 3.34003 8.61854 2.49966C9.16398 2.08024 9.70756 1.77043 10.2168 1.61455C10.7261 1.45869 11.2395 1.44668 11.6742 1.68413C12.1089 1.92157 12.3547 2.34831 12.4666 2.84349C12.5786 3.33871 12.5668 3.93901 12.4556 4.59564Z" fill="#000000"/>
</svg>
