<svg width="15" height="15" viewBox="0 0 15 15" fill="none" xmlns="http://www.w3.org/2000/svg">
<g clip-path="url(#clip0_1_2)">
<path d="M7.11875 5.88623C7.2375 5.72255 7.36688 5.70186 7.47188 5.70186C7.57688 5.70186 7.75125 5.72255 7.87 5.88623C8.80125 7.08577 10.3387 9.476 11.4731 11.2399C12.2131 12.3892 12.7812 13.2726 12.8981 13.3849C13.3356 13.8068 13.9356 13.5438 14.2844 13.0652C14.6275 12.5942 14.7225 12.2633 14.7225 11.9105C14.7225 11.67 9.74875 2.9955 9.24813 2.27341C8.76688 1.57909 8.60938 1.40359 7.78563 1.40359H7.16813C6.34625 1.40359 6.2275 1.57909 5.74563 2.27341C5.245 2.9955 0.270625 11.67 0.270625 11.91C0.270625 12.2633 0.36625 12.5942 0.71 13.0652C1.05875 13.5438 1.65875 13.8068 2.09625 13.3843C2.2125 13.272 2.78062 12.3892 3.52062 11.2393C4.655 9.476 6.1875 7.08577 7.11938 5.88564L7.11875 5.88623Z" fill="black"/>
</g>
<defs>
<clipPath id="clip0_1_2">
<rect width="15" height="13" fill="white" transform="translate(0 1)"/>
</clipPath>
</defs>
</svg>
