<svg width="14" height="15" viewBox="0 0 14 15" fill="none" xmlns="http://www.w3.org/2000/svg">
<g clip-path="url(#clip0_3887_122901)">
<path d="M12.8734 6.12994C12.741 5.9582 12.5628 5.82095 12.356 5.73148C12.1487 5.64164 11.9198 5.60239 11.6914 5.61748C11.4629 5.63256 11.2425 5.70147 11.0511 5.81763C10.8606 5.93344 10.7059 6.09279 10.6019 6.28017C10.4997 6.48134 10.4668 6.70662 10.5077 6.92559C10.5486 7.14456 10.6613 7.34667 10.8306 7.50463C11.2942 7.53838 11.7555 7.41806 12.1314 7.1654C12.5058 6.91411 12.7697 6.54635 12.8734 6.12994ZM8.92485 1.40494L8.07902 0.98063L4.39819 2.85501L4.6916 3.0004L5.24985 3.26855L6.26019 2.75486L8.92544 1.39632L8.92485 1.40494ZM9.26552 1.27571C9.28725 1.2807 9.30723 1.29075 9.32357 1.30488C9.33991 1.31902 9.35205 1.33678 9.35885 1.35648L10.592 4.68525C10.6048 4.71163 10.6058 4.74158 10.5949 4.76866C10.584 4.79574 10.562 4.8178 10.5337 4.83009C10.0643 5.06521 9.69476 5.43976 9.48485 5.89301C9.27587 6.34501 9.23987 6.84922 9.38277 7.32263C9.55423 7.83892 9.91653 8.2833 10.4065 8.57832C10.8977 8.87448 11.4869 9.00371 12.0714 8.94448C12.1033 8.94273 12.1351 8.95005 12.1624 8.96545C12.1897 8.98085 12.2113 9.00359 12.2242 9.03063L13.4982 12.4472C13.5064 12.4747 13.5051 12.5039 13.4945 12.5307C13.484 12.5575 13.4647 12.5806 13.4393 12.5969L9.52394 14.6915C9.5053 14.6988 9.48525 14.7024 9.46502 14.7022C9.42886 14.7084 9.39151 14.7027 9.35944 14.6861L7.98569 13.8972C7.96069 13.8853 7.94032 13.8665 7.92735 13.8434L5.24402 8.19871L1.15777 10.3256C1.13329 10.337 1.10645 10.3434 1.07907 10.3443C1.05169 10.3452 1.02442 10.3407 0.999103 10.331L0.0704368 9.84748C0.0403268 9.83255 0.0175242 9.80757 0.00668353 9.77765C-0.00415717 9.74773 -0.00221864 9.71512 0.0121034 9.68648L3.98169 2.79417C3.99655 2.77067 4.01898 2.75204 4.04585 2.74086L8.00377 0.721091C8.02545 0.710574 8.04957 0.705078 8.07406 0.705078C8.09855 0.705078 8.12267 0.710574 8.14435 0.721091L9.2661 1.27571H9.26552ZM4.35735 3.12748L4.16485 3.03648L0.338187 9.70263L1.03644 10.0623L4.33635 6.11271C4.35255 6.09448 4.37322 6.08008 4.39666 6.07072C4.4201 6.06135 4.44562 6.05729 4.4711 6.05886C4.49602 6.063 4.51956 6.0724 4.5399 6.08632C4.56023 6.10023 4.57682 6.11829 4.58835 6.13909L8.18169 13.7131L9.14185 14.2553L5.28485 3.9384L5.12094 3.50871L4.3521 3.12209L4.35794 3.12748H4.35735ZM10.2753 7.1024C10.1874 6.80527 10.2121 6.48934 10.3453 6.20694C10.479 5.92321 10.713 5.68973 11.0091 5.54463C11.3103 5.39079 11.6564 5.32878 11.9981 5.36746C12.3397 5.40615 12.6594 5.54354 12.9114 5.76001C13.0515 5.88319 13.1639 6.03077 13.242 6.19424C13.3201 6.35771 13.3623 6.53383 13.3663 6.71244C13.3702 6.89105 13.3358 7.06862 13.265 7.2349C13.1943 7.40118 13.0885 7.55288 12.9539 7.68125L12.9114 7.72055C12.6126 7.9803 12.218 8.12539 11.8077 8.12639C11.3973 8.12739 11.0019 7.98422 10.7017 7.72594C10.5042 7.55508 10.3574 7.34042 10.2753 7.1024Z" fill="#292929"/>
</g>
<defs>
<clipPath id="clip0_3887_122901">
<rect width="14" height="14" fill="white" transform="translate(0 0.705078)"/>
</clipPath>
</defs>
</svg>
