<svg xmlns="http://www.w3.org/2000/svg" viewBox="0 0 24 24" id="rust"><path d="m.165 12.292 1.008.625c.008.098.018.197.028.294l-.866.808a.347.347 0 0 0 .114.577l.002.001 1.106.414c.027.096.057.191.087.286l-.69.959a.346.346 0 0 0 .226.545h.002l1.166.189c.045.088.092.175.141.262l-.491 1.077a.346.346 0 0 0 .315.49h.014l1.182-.042c.062.077.123.153.187.228l-.27 1.155a.345.345 0 0 0 .419.415h-.002l1.153-.271c.075.064.151.125.228.186l-.041 1.185v.015a.344.344 0 0 0 .492.31l-.002.001 1.076-.49c.087.049.174.095.262.141l.19 1.167a.348.348 0 0 0 .545.226l-.001.001.959-.691c.095.03.189.06.285.087l.414 1.107a.345.345 0 0 0 .578.115l.808-.866c.097.011.195.02.294.029l.624 1.008c.062.101.17.165.294.165a.348.348 0 0 0 .294-.162l.001-.001.624-1.008c.098-.009.196-.018.294-.029l.807.866a.349.349 0 0 0 .578-.114l.001-.002.414-1.107c.096-.027.191-.057.285-.087l.959.691a.346.346 0 0 0 .544-.226v-.002l.19-1.167c.088-.045.175-.093.262-.141l1.076.49a.348.348 0 0 0 .49-.317v-.01l-.042-1.185c.077-.061.153-.123.227-.186l1.153.272a.348.348 0 0 0 .417-.418v.002l-.271-1.155c.063-.075.126-.151.186-.228l1.184.042h.016a.344.344 0 0 0 .311-.492l.001.002-.49-1.077c.048-.087.095-.174.141-.262l1.166-.189a.349.349 0 0 0 .225-.546l.001.001-.69-.959.087-.286 1.106-.414a.347.347 0 0 0 .116-.578l-.866-.808c.01-.097.02-.196.028-.294l1.007-.624a.346.346 0 0 0 .001-.589l-.001-.001-.002.003-1.007-.624a38.61 38.61 0 0 0-.027-.295l.865-.806a.349.349 0 0 0-.114-.578l-.002-.002-1.106-.414a7.679 7.679 0 0 0-.086-.288l.689-.957a.347.347 0 0 0-.224-.544h-.002l-1.166-.189c-.058-.115-.1-.191-.14-.264L22 5.669a.342.342 0 0 0-.027-.336.35.35 0 0 0-.301-.154l-1.184.041a6.64 6.64 0 0 0-.194-.235l.007.008.272-1.154a.347.347 0 0 0-.419-.417h.002l-1.153.272-.201-.167-.026-.02.042-1.185v-.016a.344.344 0 0 0-.492-.311l.002-.001-1.076.491a13.203 13.203 0 0 0-.262-.141l-.19-1.168a.349.349 0 0 0-.546-.225l.001-.001-.96.691a2.907 2.907 0 0 0-.226-.071l-.06-.015-.414-1.107a.35.35 0 0 0-.577-.116l-.807.868a6.621 6.621 0 0 0-.26-.026l-.033-.002-.624-1.008a.349.349 0 0 0-.589-.001l-.001.001-.624 1.008c-.097.008-.196.018-.293.028L9.979.333a.347.347 0 0 0-.577.114l-.001.002-.414 1.107c-.096.027-.19.057-.285.086L7.743.951a.348.348 0 0 0-.544.224v.002l-.19 1.168c-.115.058-.191.1-.264.14L5.67 1.994a.346.346 0 0 0-.49.315v.013l.042 1.185a8.116 8.116 0 0 0-.228.188l-1.153-.273a.348.348 0 0 0-.417.419V3.84l.271 1.154c-.063.074-.126.15-.186.226l-1.185-.041h-.013a.346.346 0 0 0-.314.492l-.001-.002.491 1.077c-.024.04-.071.126-.116.212l-.024.05-1.167.189a.349.349 0 0 0-.225.546v-.001l.69.959c-.03.095-.059.189-.087.286l-1.106.414a.35.35 0 0 0-.116.577l.866.807a6.621 6.621 0 0 0-.026.26l-.002.033-1.007.624a.344.344 0 0 0-.002.59zm6.675 7.736-.005.001a.714.714 0 0 1-.304-1.396l.005-.001a.714.714 0 0 1 .304 1.396zm10.248.034.003.001-.003-.001zm.151.016a.715.715 0 1 1 .152-1.412.715.715 0 0 1-.152 1.412zm1.828-2.96c-.26.352-.526.663-.812.953l-1.507-.324.001.001a.649.649 0 0 0-.771.496l-.001.004-.357 1.669a8.727 8.727 0 0 1-3.619.78h-.013a8.708 8.708 0 0 1-3.683-.815l-.357-1.668a.65.65 0 0 0-.776-.499l.004-.001-1.473.316a8.816 8.816 0 0 1-.745-.875l-.016-.023h7.167c.081 0 .136-.014.136-.088v-2.537c0-.074-.054-.088-.136-.088h-2.097v-1.608h2.268c.206 0 1.106.059 1.394 1.209.09.353.287 1.505.423 1.874.135.413.683 1.239 1.268 1.239h3.572a.754.754 0 0 0 .135-.014l-.005-.001zm-9.052-6.683V8.783h2.96c.153 0 1.079.177 1.079.87 0 .575-.711.782-1.295.782h-2.744zm9.794-1.403a.715.715 0 1 1 1.3.58.715.715 0 0 1-1.3-.58zm-8.337-6.716v.002a.711.711 0 0 1 1.205.515.712.712 0 0 1-.221.516.714.714 0 0 1-.984-1.033zm-1.154.99.056-.009 1.097 1.152a.65.65 0 0 0 .919.022l1.227-1.175a8.802 8.802 0 0 1 5.982 4.236l.022.043-.84 1.899a.652.652 0 0 0 .326.856l.004.002 1.618.719c.028.288.043.577.043.872h.002c0 .219-.008.436-.024.651h-.9c-.09 0-.127.059-.127.148v.413c0 .973-.549 1.185-1.029 1.239-.458.052-.965-.191-1.028-.472-.27-1.519-.72-1.844-1.43-2.404.882-.56 1.799-1.387 1.799-2.493 0-1.194-.819-1.947-1.377-2.316-.783-.517-1.649-.62-1.883-.62H5.467a8.75 8.75 0 0 1 4.851-2.763zM5.145 9.433l.002.004-.316-.714h1.243v5.605H3.566a8.73 8.73 0 0 1-.282-3.35l1.532-.681a.651.651 0 0 0 .329-.864zm-1.672-.841c.281 0 .524.163.641.4l.002.004v.001a.714.714 0 1 1-1.302.583l-.002-.005a.714.714 0 0 1 .661-.983z"></path></svg>