<svg width="15" height="15" viewBox="0 0 15 15" fill="none" xmlns="http://www.w3.org/2000/svg">
<path d="M8.95538 9.92493C10.8423 10.0178 12.5765 10.9296 12.4739 12.5001C12.3712 14.0708 10.9113 14.874 8.85773 14.9415C6.80473 15.009 3.16706 15.2459 2.77374 13.8683C2.18631 11.8107 6.27351 9.79359 8.95538 9.92493ZM2.53156 7.03528C2.59828 6.32925 3.41635 3.85997 5.95538 4.30774C8.49537 4.75485 12.505 6.83504 11.1683 8.41809C10.5872 9.10615 7.4242 8.76994 5.80499 8.80188C4.18584 8.8338 2.37533 8.68428 2.53156 7.03528ZM7.77081 0.00109863C8.82059 -0.0250279 10.5474 0.559861 10.6419 1.49329C10.7364 2.4267 10.5641 3.6737 9.53839 3.83411C8.4951 3.99709 5.27285 2.98837 4.9964 2.08704C4.6161 0.844429 6.27907 0.03814 7.77081 0.00109863Z" fill="currentColor"/>
</svg>
