<svg width="16" height="16" viewBox="0 0 16 16" fill="none" xmlns="http://www.w3.org/2000/svg">
<g clip-path="url(#clip0_1_5)">
<path d="M7.38503 0.015114C7.59603 -0.0125906 7.81893 0.00626854 8.03158 0.00626854C8.8194 0.00626854 9.59289 0.128582 10.3467 0.360399C11.3086 0.656262 12.2047 1.12928 12.9955 1.75159C13.9648 2.51434 14.7679 3.5148 15.2833 4.6376C16.2475 6.73829 16.2404 9.28415 15.2526 11.376C14.6139 12.7285 13.5892 13.8605 12.3489 14.6861C11.337 15.3596 10.1534 15.7719 8.94928 15.9179C7.41654 16.1037 5.75954 15.8322 4.38166 15.1257C1.79499 13.7994 0.0364624 11.1302 0.0016734 8.20498C-0.0050216 7.641 0.00375906 7.07366 0.115405 6.51517C0.297254 5.60561 0.614318 4.72639 1.0905 3.9283C1.60559 3.06493 2.27094 2.30306 3.06769 1.6888C4.00203 0.96846 5.08795 0.450334 6.23791 0.186745C6.51562 0.123096 6.79447 0.0878225 7.07471 0.0537082L7.16325 0.0429421C7.23708 0.0339495 7.311 0.0248388 7.38503 0.015114ZM4.70912 13.3139C4.35291 13.3521 3.97721 13.4169 3.67149 13.617C3.74031 13.6335 3.81919 13.6171 3.89099 13.617C4.06343 13.6167 4.23753 13.6102 4.4098 13.6177C4.84106 13.6367 5.29039 13.7056 5.70684 13.8198C6.24004 13.966 6.70969 14.2538 7.22337 14.4478C7.76529 14.6525 8.30474 14.7161 8.87959 14.7161C9.16927 14.7161 9.45675 14.7153 9.73763 14.6362C9.59104 14.5581 9.3812 14.5728 9.21881 14.5402C8.86648 14.4697 8.52007 14.3835 8.18118 14.2626C7.93176 14.1736 7.69151 14.0638 7.45237 13.9516L7.29871 13.8794C7.07675 13.7751 6.85425 13.6722 6.62474 13.5855C6.02128 13.3575 5.35257 13.2449 4.70912 13.3139ZM5.24789 11.7983C4.542 11.7983 3.82807 11.9227 3.19258 12.243C3.03861 12.3206 2.89227 12.413 2.75359 12.5155C2.71132 12.5467 2.63639 12.5868 2.62077 12.6411C2.60493 12.6962 2.66158 12.7424 2.69372 12.7776C2.85256 12.6929 3.00347 12.6033 3.17263 12.5391C4.26663 12.1235 5.59286 12.2106 6.6846 12.5916C7.22906 12.7817 7.73069 13.0659 8.261 13.2887C8.85409 13.538 9.45984 13.6996 10.0968 13.7825C10.8481 13.8802 11.7048 13.801 12.3916 13.4619C12.6329 13.3428 12.968 13.1613 13.07 12.8975C12.944 12.9085 12.8306 12.9625 12.7108 12.9997C12.5204 13.0589 12.3277 13.1091 12.1322 13.1483C11.4693 13.2811 10.7643 13.3085 10.0968 13.188C9.46769 13.0744 8.88315 12.8463 8.30136 12.6063L8.2271 12.5756C8.1776 12.5551 8.1281 12.5345 8.07859 12.514L8.0043 12.4832C7.70708 12.3601 7.40872 12.2385 7.10365 12.132C6.511 11.9251 5.87585 11.7983 5.24789 11.7983ZM6.48506 0.95511C5.63889 1.14203 4.88088 1.50601 4.15039 1.96486C3.7263 2.23123 3.32063 2.50413 2.95313 2.84696C2.40662 3.35683 1.98893 3.97654 1.62465 4.62383C1.2493 5.29074 1.00865 6.06798 0.892338 6.82214C0.778239 7.56202 0.759442 8.33992 0.890143 9.08042C1.05353 10.0062 1.36452 10.8749 1.85564 11.6784C2.02068 11.6014 2.13785 11.4256 2.27468 11.3072C2.55097 11.0682 2.84105 10.8466 3.15267 10.6554C3.26803 10.5847 3.38654 10.5297 3.51185 10.4793C3.55912 10.4603 3.63641 10.443 3.65866 10.3911C3.69402 10.3086 3.62863 10.1651 3.61739 10.0797C3.58533 9.8353 3.56597 9.58679 3.57202 9.34022C3.58958 8.62211 3.72377 7.89399 3.97926 7.22184C4.1718 6.71539 4.46593 6.25556 4.81438 5.84289C4.93261 5.70286 5.0583 5.57252 5.18802 5.44322C5.26469 5.3668 5.35983 5.30141 5.40752 5.20338C5.15733 5.20354 4.9071 5.27569 4.66921 5.34893C4.1567 5.50673 3.65744 5.74087 3.23249 6.07122C3.03865 6.22192 2.8967 6.41945 2.71338 6.57805C2.65715 6.62671 2.55642 6.69192 2.47871 6.65521C2.36132 6.59977 2.37944 6.36875 2.36599 6.26257C2.31427 5.85416 2.46898 5.33758 2.66559 4.98355C2.98121 4.41524 3.56479 3.92998 4.25017 3.94692C4.54615 3.95424 4.80528 4.05708 5.08825 4.12421C5.0165 4.02227 4.9203 3.94796 4.82884 3.86441C4.60478 3.65966 4.3597 3.47267 4.09053 3.33121C3.98224 3.27432 3.86564 3.23974 3.75131 3.19794C3.69382 3.17693 3.62142 3.14801 3.59979 3.08412C3.55974 2.96579 3.77282 2.8562 3.85108 2.8063C4.15363 2.6134 4.5246 2.45472 4.88871 2.44579C5.45773 2.43182 6.0137 2.74756 6.24808 3.28485C6.33048 3.47372 6.35485 3.67345 6.37102 3.87502L6.37396 3.91283L6.37818 3.9696C6.37865 3.97591 6.37911 3.98222 6.37957 3.98853L6.38238 4.0264L6.38529 4.06425C6.564 3.91856 6.68969 3.70417 6.86419 3.54813C7.2723 3.18317 7.83082 3.02115 8.36077 3.18545C8.8397 3.33389 9.25595 3.6644 9.50093 4.10422C9.56502 4.21929 9.74383 4.50054 9.61465 4.61515C9.51354 4.70488 9.38531 4.63496 9.27868 4.59775C9.19793 4.56958 9.1145 4.55171 9.03078 4.53516L8.9851 4.52621C8.96988 4.52324 8.95465 4.52026 8.93945 4.51721C8.64947 4.45907 8.31216 4.46511 8.02155 4.51621C7.83366 4.54924 7.65004 4.61611 7.46283 4.64381V4.68378C7.97474 4.68802 8.46992 4.98005 8.72249 5.42321C8.82713 5.60681 8.87939 5.81695 8.91948 6.02276C8.96904 6.27712 8.9342 6.55425 8.8647 6.80216C8.8414 6.88528 8.79909 7.02619 8.6997 7.04533C8.62944 7.05886 8.56978 6.98892 8.52967 6.94175C8.42453 6.81813 8.32452 6.7006 8.20114 6.59384C7.88901 6.32379 7.55899 6.07468 7.22337 5.83448C7.04518 5.70694 6.85001 5.54112 6.6447 5.46318C6.70242 5.60224 6.75897 5.73152 6.77861 5.88286C6.83636 6.32804 6.64998 6.74706 6.37024 7.08195C6.28488 7.18415 6.19357 7.28709 6.08597 7.36649C6.04135 7.39942 5.98536 7.44243 5.92634 7.43312C5.74128 7.40388 5.71925 7.12493 5.69087 6.98202C5.59477 6.49797 5.63337 6.01722 5.7667 5.54312C5.64807 5.60328 5.56233 5.73492 5.48784 5.84289C5.32395 6.08049 5.18176 6.3318 5.07979 6.60231C4.6737 7.67987 4.67761 8.94198 5.20369 9.97935C5.26243 10.0952 5.35159 10.0797 5.46738 10.0797C5.48483 10.0797 5.5023 10.0795 5.51978 10.0794L5.57226 10.0789C5.67728 10.0778 5.78252 10.0773 5.88643 10.0912C5.94034 10.0984 6.01521 10.0919 6.0579 10.1317C6.109 10.1793 6.08176 10.2609 6.06999 10.3195C6.0371 10.4832 6.02611 10.6321 6.02611 10.7991C6.24453 10.7652 6.30507 10.4151 6.38249 10.2395C6.47023 10.0407 6.55951 9.8416 6.64068 9.63999C6.68059 9.54091 6.73397 9.43011 6.71996 9.32024C6.70424 9.19675 6.61502 9.06583 6.55284 8.96051C6.43515 8.7612 6.30138 8.5561 6.21474 8.34098C6.14548 8.16901 6.20997 7.95412 6.40526 7.89269C6.51298 7.85879 6.62789 7.92526 6.69799 8.00312C6.84498 8.16634 6.93986 8.40921 7.04658 8.60078L7.87907 10.0996C7.94977 10.2266 8.02063 10.3533 8.09297 10.4793C8.12118 10.5285 8.1499 10.6044 8.2077 10.6254C8.25919 10.644 8.32952 10.6175 8.38073 10.6073C8.51366 10.5806 8.6464 10.5519 8.77982 10.5278C8.93969 10.4989 9.18339 10.5043 9.29863 10.3794C9.1301 10.326 8.93528 10.3292 8.75986 10.3412C8.6545 10.3485 8.53771 10.3862 8.44089 10.3246C8.2968 10.2331 8.20102 10.0215 8.11286 9.87981C7.8955 9.53031 7.69071 9.17557 7.48256 8.82062L7.44925 8.7641L7.3823 8.65118C7.34889 8.59468 7.31572 8.53803 7.28356 8.48088C7.25869 8.43667 7.22184 8.37841 7.25745 8.32967C7.29487 8.27849 7.37641 8.27548 7.45003 8.27538L7.46464 8.27539C7.49357 8.27542 7.52068 8.27544 7.54264 8.27256C7.83972 8.23347 8.14094 8.20109 8.44059 8.20109C8.41726 8.11995 8.35056 8.02824 8.37189 7.94137C8.41962 7.747 8.69928 7.68618 8.82934 7.82566C8.91666 7.91929 8.96741 8.04815 9.02422 8.16112C9.09919 8.31027 9.18455 8.45444 9.26483 8.60078C9.40535 8.85701 9.55882 9.1062 9.70333 9.3602C9.71524 9.38115 9.72752 9.402 9.73993 9.42282L9.75861 9.45406C9.82098 9.55821 9.88362 9.66306 9.91722 9.77988C9.41532 9.75692 9.03857 9.17433 8.81973 8.78065C8.80226 8.84368 8.83064 8.89994 8.85333 8.96051C8.90048 9.08631 8.95683 9.20612 9.02775 9.32024C9.12904 9.48319 9.24515 9.651 9.3984 9.76931C9.67036 9.97925 10.029 9.98041 10.3562 9.95797C10.5661 9.94356 10.8283 9.84803 11.0347 9.91284C11.2407 9.97755 11.3237 10.2048 11.2013 10.3794C11.1096 10.5102 10.9873 10.5596 10.8351 10.5793C10.9427 10.8101 11.0837 11.0243 11.1858 11.2588C11.2284 11.3564 11.2728 11.5061 11.3747 11.5577C11.4427 11.592 11.5399 11.56 11.6133 11.5585C11.5397 11.3636 11.4017 11.1982 11.334 10.999C11.5405 11.0084 11.7403 11.1162 11.9326 11.185C12.3109 11.3203 12.6845 11.4682 13.0575 11.6175L13.2296 11.6864C13.3831 11.7479 13.5374 11.8087 13.6886 11.8755C13.7439 11.9 13.8205 11.9571 13.8816 11.9219C13.9315 11.8932 13.9638 11.8247 13.9946 11.7784C14.0806 11.6486 14.1586 11.5138 14.2358 11.3787C14.545 10.8373 14.7717 10.2441 14.9232 9.63999C15.4229 7.64743 14.9943 5.44889 13.7935 3.78447C13.3321 3.14498 12.7519 2.59212 12.1122 2.13427C10.5114 0.988525 8.41112 0.529676 6.48506 0.95511ZM9.75758 10.8916C9.33321 11.0022 8.89587 11.1025 8.46055 11.1588C8.51779 11.3537 8.6577 11.5433 8.7601 11.7184C8.79969 11.7861 8.84205 11.8767 8.92029 11.9061C9.00867 11.9393 9.11547 11.8855 9.19886 11.8583C9.16025 11.7527 9.09528 11.6576 9.0421 11.5585C9.02019 11.5177 8.98628 11.4693 9.00434 11.4208C9.03849 11.3292 9.18022 11.3346 9.25872 11.3186C9.46559 11.2767 9.6703 11.2243 9.87731 11.1828C9.95357 11.1675 10.0598 11.1261 10.1364 11.1517C10.1938 11.1708 10.2284 11.2181 10.2611 11.2674L10.2758 11.2897C10.2954 11.3193 10.3154 11.3482 10.3405 11.3708C10.4241 11.4463 10.5493 11.458 10.6555 11.4786C10.5907 11.3327 10.4829 11.2051 10.4139 11.0589C10.3737 10.9739 10.3407 10.8489 10.2528 10.7997C10.1316 10.7321 9.88142 10.8593 9.75758 10.8916ZM7.08369 9.91978C7.06372 10.1731 6.986 10.3793 6.86419 10.5993C7.00377 10.6169 7.14615 10.6232 7.28324 10.6572C7.38598 10.6827 7.48066 10.7312 7.58255 10.7591C7.52808 10.6101 7.42701 10.4771 7.34871 10.3395C7.26965 10.2005 7.19889 10.0317 7.08369 9.91978Z" fill="black"/>
</g>
<defs>
<clipPath id="clip0_1_5">
<rect width="16" height="16" fill="white"/>
</clipPath>
</defs>
</svg>
