<svg width="16" height="16" viewBox="0 0 32 32" fill="none" xmlns="http://www.w3.org/2000/svg">
<path d="M0 4.74158V8.82462H5.9255V27.2585H10.6659V8.82462H16.5914V4.74158H0ZM25.7065 4.75315C22.0153 4.73846 17.7973 5.85702 17.7973 11.0513C17.7973 17.8419 26.9471 17.8436 26.9471 20.9071C26.9471 21.1974 27.0703 23.3074 23.8409 23.3074C20.6115 23.3074 17.92 21.2774 17.92 21.2774V26.2053C17.92 26.2053 32 30.7593 32 20.4904C31.9988 13.8243 22.7646 14.1577 22.7646 10.8453C22.7646 9.56184 23.6764 8.36168 26.2018 8.36169C28.7273 8.36169 30.963 9.85232 30.963 9.85232L31.1297 5.46143C31.1297 5.46143 28.5774 4.76458 25.7065 4.75315Z" fill="black"/>
</svg>
